<svg width="24" height="24" viewBox="0 0 24 24" fill="none" xmlns="http://www.w3.org/2000/svg">
<path d="M22.6667 20.6367H1.33333C0.597333 20.6367 0 21.2394 0 21.9819V23.9997H24V21.9819C24 21.2394 23.4027 20.6367 22.6667 20.6367Z" fill="#FFAC33"/>
<path d="M11.3302 21.6459C11.2136 22.19 10.6802 22.5357 10.1409 22.4174C9.6009 22.299 9.25823 21.7616 9.37556 21.2174L13.3356 0.795176C13.4529 0.250367 13.9856 -0.0946782 14.5249 0.0230274C15.0642 0.141406 15.4069 0.678816 15.2896 1.22295L11.3302 21.6459Z" fill="#66757F"/>
<path d="M14.2423 1.33597C8.30562 0.0364985 2.66962 2.80763 1.65429 7.52728C1.65429 7.52728 1.37162 8.84155 2.02296 8.98482C2.67429 9.12741 4.26029 8.09832 4.26029 8.09832L20.5476 11.6651C20.5476 11.6651 21.5676 13.2653 22.2196 13.4079C22.871 13.5504 23.1536 12.2362 23.1536 12.2362C24.1696 7.51585 20.1796 2.63611 14.2423 1.33597Z" fill="#DD2E44"/>
<path d="M14.2421 1.33813C9.74475 0.353442 5.27609 3.38083 4.26075 8.09982C4.26075 8.09982 3.97809 9.41476 5.28075 9.69994C6.58342 9.98512 8.82075 9.09863 8.82075 9.09863L15.9867 10.6678C15.9867 10.6678 17.6588 12.4099 18.9621 12.6957C20.2647 12.9809 20.5474 11.6666 20.5474 11.6666C21.5634 6.94697 18.7394 2.32283 14.2421 1.33813Z" fill="#E1E8ED"/>
<path d="M14.2412 1.33815C11.9025 0.826304 9.83516 4.37899 8.81982 9.09865C8.81982 9.09865 10.4912 10.8414 11.7945 11.1266L12.4458 11.2691C13.7492 11.5543 15.9858 10.6678 15.9858 10.6678C17.0018 5.94885 16.5805 1.85068 14.2412 1.33815Z" fill="#DD2E44"/>
</svg>
