<svg width="16" height="16" viewBox="0 0 16 16" fill="none" xmlns="http://www.w3.org/2000/svg">
<path d="M8.6001 10.8861L9.71343 9.95945L8.6001 8.93945V10.8861Z" fill="#A7A7A7"/>
<path d="M8.6001 7.05995L9.71343 6.03995L8.6001 5.11328V7.05995Z" fill="#A7A7A7"/>
<path d="M10.0001 1.33398H6.00008C4.00008 1.33398 2.66675 2.66732 2.66675 4.66732V11.334C2.66675 13.334 4.00008 14.6673 6.00008 14.6673H10.0001C12.0001 14.6673 13.3334 13.334 13.3334 11.334V4.66732C13.3334 2.66732 12.0001 1.33398 10.0001 1.33398ZM10.4801 9.30065C10.6734 9.48065 10.7801 9.72732 10.7734 9.98065C10.7667 10.234 10.6467 10.4807 10.4467 10.6473L9.06675 11.8007C8.81341 12.014 8.58008 12.074 8.40008 12.074C8.25341 12.074 8.14008 12.034 8.07341 12.0073C7.92675 11.9407 7.59341 11.7207 7.59341 11.114V9.33398L6.06008 10.7407C5.86008 10.9273 5.54008 10.914 5.35341 10.7073C5.16675 10.5007 5.18008 10.1873 5.38675 10.0007L7.57341 8.00065L5.38675 5.99398C5.18675 5.80732 5.17341 5.49398 5.36008 5.28732C5.54675 5.08732 5.86675 5.06732 6.06675 5.25398L7.60008 6.66732V4.88732C7.60008 4.28732 7.93341 4.06732 8.08008 3.99398C8.22008 3.92732 8.60675 3.80732 9.07341 4.19398L10.4467 5.34065C10.6467 5.50732 10.7667 5.75398 10.7734 6.00732C10.7801 6.26065 10.6734 6.51398 10.4801 6.68732L9.05341 8.00065L10.4801 9.30065Z" fill="#A7A7A7"/>
</svg>
