<svg xmlns="http://www.w3.org/2000/svg" xmlns:xlink="http://www.w3.org/1999/xlink" width="24" height="24" viewBox="0 0 24 24">
  <defs>
    <linearGradient id="linear-gradient" x1="0.5" x2="0.5" y2="1" gradientUnits="objectBoundingBox">
      <stop offset="0" stop-color="#fbd08c"/>
      <stop offset="1" stop-color="#ffae00"/>
    </linearGradient>
  </defs>
  <path id="Icon_material-language" data-name="Icon material-language" d="M14.988,3A12,12,0,1,0,27,15,11.994,11.994,0,0,0,14.988,3ZM23.3,10.2h-3.54a18.779,18.779,0,0,0-1.656-4.272A9.636,9.636,0,0,1,23.3,10.2ZM15,5.448A16.9,16.9,0,0,1,17.292,10.2H12.708A16.9,16.9,0,0,1,15,5.448ZM5.712,17.4a9.387,9.387,0,0,1,0-4.8H9.768A19.818,19.818,0,0,0,9.6,15a19.818,19.818,0,0,0,.168,2.4ZM6.7,19.8h3.54a18.779,18.779,0,0,0,1.656,4.272A9.584,9.584,0,0,1,6.7,19.8Zm3.54-9.6H6.7a9.584,9.584,0,0,1,5.2-4.272A18.779,18.779,0,0,0,10.236,10.2ZM15,24.552A16.9,16.9,0,0,1,12.708,19.8h4.584A16.9,16.9,0,0,1,15,24.552ZM17.808,17.4H12.192A17.655,17.655,0,0,1,12,15a17.5,17.5,0,0,1,.192-2.4h5.616A17.5,17.5,0,0,1,18,15,17.655,17.655,0,0,1,17.808,17.4Zm.3,6.672A18.779,18.779,0,0,0,19.764,19.8H23.3A9.636,9.636,0,0,1,18.108,24.072ZM20.232,17.4A19.818,19.818,0,0,0,20.4,15a19.819,19.819,0,0,0-.168-2.4h4.056a9.387,9.387,0,0,1,0,4.8Z" transform="translate(-3 -3)" fill="url(#linear-gradient)"/>
</svg>
