<svg width="24" height="24" viewBox="0 0 24 24" fill="none" xmlns="http://www.w3.org/2000/svg">
<path d="M17.62 10.7516C17.19 10.7516 16.85 10.4016 16.85 9.98156C16.85 9.61156 16.48 8.84156 15.86 8.17156C15.25 7.52156 14.58 7.14156 14.02 7.14156C13.59 7.14156 13.25 6.79156 13.25 6.37156C13.25 5.95156 13.6 5.60156 14.02 5.60156C15.02 5.60156 16.07 6.14156 16.99 7.11156C17.85 8.02156 18.4 9.15156 18.4 9.97156C18.4 10.4016 18.05 10.7516 17.62 10.7516Z" fill="#5C7AEA"/>
<path d="M21.23 10.75C20.8 10.75 20.46 10.4 20.46 9.98C20.46 6.43 17.57 3.55 14.03 3.55C13.6 3.55 13.26 3.2 13.26 2.78C13.26 2.36 13.6 2 14.02 2C18.42 2 22 5.58 22 9.98C22 10.4 21.65 10.75 21.23 10.75Z" fill="#5C7AEA"/>
<path d="M11.05 14.95L9.2 16.8C8.81 17.19 8.19 17.19 7.79 16.81C7.68 16.7 7.57 16.6 7.46 16.49C6.43 15.45 5.5 14.36 4.67 13.22C3.85 12.08 3.19 10.94 2.71 9.81C2.24 8.67 2 7.58 2 6.54C2 5.86 2.12 5.21 2.36 4.61C2.6 4 2.98 3.44 3.51 2.94C4.15 2.31 4.85 2 5.59 2C5.87 2 6.15 2.06 6.4 2.18C6.66 2.3 6.89 2.48 7.07 2.74L9.39 6.01C9.57 6.26 9.7 6.49 9.79 6.71C9.88 6.92 9.93 7.13 9.93 7.32C9.93 7.56 9.86 7.8 9.72 8.03C9.59 8.26 9.4 8.5 9.16 8.74L8.4 9.53C8.29 9.64 8.24 9.77 8.24 9.93C8.24 10.01 8.25 10.08 8.27 10.16C8.3 10.24 8.33 10.3 8.35 10.36C8.53 10.69 8.84 11.12 9.28 11.64C9.73 12.16 10.21 12.69 10.73 13.22C10.83 13.32 10.94 13.42 11.04 13.52C11.44 13.91 11.45 14.55 11.05 14.95Z" fill="#5C7AEA"/>
<path d="M21.9701 18.3291C21.9701 18.6091 21.9201 18.8991 21.8201 19.1791C21.7901 19.2591 21.7601 19.3391 21.7201 19.4191C21.5501 19.7791 21.3301 20.1191 21.0401 20.4391C20.5501 20.9791 20.0101 21.3691 19.4001 21.6191C19.3901 21.6191 19.3801 21.6291 19.3701 21.6291C18.7801 21.8691 18.1401 21.9991 17.4501 21.9991C16.4301 21.9991 15.3401 21.7591 14.1901 21.2691C13.0401 20.7791 11.8901 20.1191 10.7501 19.2891C10.3601 18.9991 9.9701 18.7091 9.6001 18.3991L12.8701 15.1291C13.1501 15.3391 13.4001 15.4991 13.6101 15.6091C13.6601 15.6291 13.7201 15.6591 13.7901 15.6891C13.8701 15.7191 13.9501 15.7291 14.0401 15.7291C14.2101 15.7291 14.3401 15.6691 14.4501 15.5591L15.2101 14.8091C15.4601 14.5591 15.7001 14.3691 15.9301 14.2491C16.1601 14.1091 16.3901 14.0391 16.6401 14.0391C16.8301 14.0391 17.0301 14.0791 17.2501 14.1691C17.4701 14.2591 17.7001 14.3891 17.9501 14.5591L21.2601 16.9091C21.5201 17.0891 21.7001 17.2991 21.8101 17.5491C21.9101 17.7991 21.9701 18.0491 21.9701 18.3291Z" fill="#5C7AEA"/>
</svg>
