<svg width="30" height="24" viewBox="0 0 30 24" fill="none" xmlns="http://www.w3.org/2000/svg">
<g clip-path="url(#clip0_32_5173)">
<path d="M0 19.9395C0.106944 19.5849 0.17875 19.2142 0.326944 18.8774C0.849444 17.6908 1.77451 17.0034 3.025 16.758C3.16479 16.7302 3.25417 16.7077 3.26104 16.5405C3.28472 15.463 3.67201 14.5194 4.30375 13.6664C4.34886 13.5944 4.38869 13.5191 4.42292 13.4411C4.50389 13.3823 4.58639 13.3266 4.66507 13.2654C5.03632 12.9785 5.40706 12.6906 5.77729 12.4016C5.85361 12.4087 5.93048 12.4072 6.00646 12.3969C6.6322 12.2293 7.28502 12.1921 7.92535 12.2878C8.9184 12.4426 9.80604 12.8203 10.56 13.4977C11.1856 14.0522 11.6739 14.7479 11.9854 15.5288C12.0247 15.6116 12.0812 15.6849 12.1509 15.7437C12.2206 15.8024 12.302 15.8453 12.3895 15.8694C13.3185 16.0077 14.178 16.448 14.8385 17.1242C15.5828 17.869 16.0298 18.8658 16.0942 19.9237C16.1587 20.9817 15.8359 22.0266 15.1876 22.8585C14.9829 23.1224 14.7469 23.3608 14.5246 23.6109C14.6304 23.6151 14.7352 23.5882 14.8263 23.5335C15.5597 23.1278 16.1654 22.5783 16.5833 21.8421C17.2303 20.6965 17.3769 19.4711 16.9339 18.235C16.3266 16.5397 15.086 15.5822 13.3283 15.2974C13.2794 15.2842 13.2336 15.2614 13.1934 15.2302C13.1533 15.199 13.1197 15.16 13.0946 15.1155C12.8593 14.6882 12.6546 14.2439 12.4109 13.822C12.2795 13.5944 12.0908 13.3993 11.9289 13.1896C12.1141 13.1475 12.302 13.1183 12.4911 13.1021C12.7126 13.0959 12.8188 13.0115 12.8983 12.7925C13.4406 11.3109 14.3733 10.156 15.7468 9.38116C15.8402 9.36914 15.9328 9.35157 16.0241 9.32852C16.8707 9.06642 17.7634 8.99405 18.6404 9.11642C20.3851 9.35639 21.822 10.1901 22.8999 11.6082C23.6188 12.5513 24.0617 13.6803 24.1778 14.8662C24.2267 15.3361 24.2504 15.3926 24.6362 15.4615C25.7217 15.6558 26.581 16.241 27.2693 17.0739C28.71 18.8163 28.5679 21.5534 26.976 23.165C26.8041 23.3399 26.6406 23.5226 26.4726 23.7014C26.0012 23.7997 25.5299 23.9809 25.0586 23.9824C17.874 24.0005 10.6894 24.0036 3.50472 23.9917C2.11597 23.9917 1.11528 23.2896 0.456042 22.0952C0.239097 21.7028 0.150486 21.2368 0.00381968 20.8049L0 19.9395Z" fill="#FEE8A0"/>
<path d="M29.3335 20.0551C29.1387 20.6024 29.0019 21.1799 28.7361 21.6892C28.2527 22.6216 27.4447 23.3389 26.4689 23.7018C26.6369 23.523 26.8004 23.3403 26.9723 23.1654C28.5612 21.5537 28.7063 18.8166 27.2656 17.0742C26.5781 16.2413 25.718 15.6561 24.6325 15.4618C24.2505 15.3929 24.2238 15.3364 24.1741 14.8666C24.0574 13.6823 23.6148 12.5551 22.8969 11.6132C21.8191 10.1951 20.3822 9.36138 18.6375 9.12142C17.7605 8.99905 16.8678 9.07142 16.0212 9.33352C15.9301 9.35649 15.8377 9.37407 15.7446 9.38616C15.825 9.3209 15.9124 9.26507 16.0051 9.21973C16.6078 9.00376 17.2136 8.79709 17.8194 8.58732L19.3846 8.52539C20.2401 8.62989 21.0697 8.8265 21.8328 9.25069C23.7341 10.3081 24.8777 11.9088 25.21 14.0871C25.2459 14.3239 25.2642 14.5624 25.2864 14.7543C25.8364 14.9564 26.3963 15.0972 26.8959 15.3558C28.2182 16.0401 28.992 17.1601 29.2769 18.6309C29.2914 18.6829 29.3106 18.7334 29.3342 18.7818L29.3335 20.0551Z" fill="#FEDB79"/>
<path d="M17.8177 8.58559C17.2119 8.79537 16.6061 9.00204 16.0034 9.21801C15.9107 9.26335 15.8233 9.31918 15.743 9.38443C14.368 10.1585 13.436 11.3142 12.8936 12.7958C12.8173 13.0133 12.708 13.0976 12.4865 13.1054C12.2971 13.1216 12.109 13.1509 11.9235 13.1929C11.7639 13.0566 11.608 12.915 11.443 12.7857C10.2109 11.8173 8.80913 11.5069 7.29892 11.7964C6.7726 11.8978 6.28218 12.1951 5.77573 12.4025C5.40499 12.6905 5.03424 12.9784 4.6635 13.2664C4.58712 13.3275 4.50232 13.3833 4.42135 13.4421C4.1601 11.9056 4.25941 10.3961 4.87128 8.95947C6.08357 6.11012 8.2217 4.45052 11.2643 4.00001C11.3865 3.98143 11.5095 3.97214 11.6317 3.95898C11.7462 4.00082 11.8634 4.03495 11.9823 4.06116C12.972 4.22069 13.9192 4.58312 14.7659 5.12628C16.1001 5.9461 17.1627 7.15055 17.8177 8.58559Z" fill="#FE8522"/>
<path d="M17.8176 8.58599C17.1629 7.15037 16.1003 5.94536 14.7659 5.12513C13.9192 4.58197 12.972 4.21954 11.9823 4.06001C11.8628 4.03387 11.7452 3.99974 11.6301 3.95784C15.0615 3.80689 17.5992 5.27375 19.2789 8.2872C19.3175 8.36409 19.3517 8.44318 19.3813 8.52407L17.8176 8.58599Z" fill="#F37516"/>
<path d="M23.7922 5.21325C24.1455 4.8522 24.6076 4.62092 25.1053 4.55606C25.4582 4.51194 25.6989 4.65515 25.7302 4.93845C25.7623 5.23879 25.5896 5.41063 25.2199 5.45321C24.8036 5.50043 24.4957 5.72491 24.2635 6.06705C23.9251 6.564 23.6432 6.56554 23.3117 6.07866C23.0619 5.71175 22.7334 5.47643 22.2751 5.44624C21.9825 5.42766 21.8061 5.21402 21.8298 4.95471C21.8534 4.6954 22.0666 4.5251 22.3591 4.54678C22.7903 4.57585 23.2024 4.73791 23.5401 5.01122L23.7922 5.21325Z" fill="#776E76"/>
<path d="M2.53297 4.66316C2.96456 4.46345 3.35491 4.27612 3.74908 4.10351C3.83015 4.07539 3.91549 4.06202 4.00116 4.06403C4.32658 4.04855 4.53588 4.20027 4.56491 4.46654C4.59394 4.73282 4.40831 4.93099 4.08595 4.96195C3.62762 5.00607 3.30755 5.24371 3.06234 5.61604C2.7713 6.05803 2.44053 6.06035 2.15637 5.62378C1.91345 5.25068 1.59262 5.00839 1.13658 4.9635C0.808868 4.93099 0.626298 4.73128 0.647687 4.47583C0.66984 4.20104 0.889077 4.03771 1.22977 4.06558C1.71967 4.10461 2.18067 4.316 2.53297 4.66316Z" fill="#776E76"/>
<path d="M17.9147 0.664153C18.3188 0.277119 18.7687 0.0239989 19.3195 0.0015509C19.6457 -0.0116083 19.8542 0.143979 19.8718 0.410259C19.8894 0.676539 19.7137 0.84451 19.3806 0.887084C18.9337 0.943591 18.6045 1.17891 18.3631 1.55511C18.0851 1.98704 17.7474 1.99245 17.4732 1.56904C17.2119 1.16652 16.8621 0.921144 16.377 0.880118C16.1097 0.85767 15.9477 0.668024 15.9561 0.42574C15.9645 0.183457 16.1532 -0.000771638 16.4351 2.43025e-06C17.0095 0.00232464 17.4793 0.254671 17.9147 0.664153Z" fill="#776E76"/>
<path d="M5.77734 12.4015C6.2838 12.194 6.77422 11.8968 7.30054 11.7954C8.81075 11.5059 10.2125 11.8163 11.4446 12.7846C11.6096 12.9139 11.7655 13.0556 11.9251 13.1918C12.0878 13.4016 12.2765 13.5966 12.4079 13.8242C12.6516 14.2461 12.8563 14.6904 13.0916 15.1177C13.1167 15.1622 13.1503 15.2012 13.1904 15.2324C13.2306 15.2636 13.2764 15.2865 13.3253 15.2996C15.0823 15.5844 16.3236 16.542 16.9309 18.2372C17.374 19.4757 17.2273 20.6987 16.5803 21.8443C16.1647 22.5805 15.5589 23.1301 14.8233 23.5357C14.7322 23.5905 14.6274 23.6173 14.5216 23.6131C14.7439 23.3631 14.9799 23.1246 15.1846 22.8607C15.8339 22.029 16.1576 20.9838 16.0938 19.9253C16.0299 18.8669 15.583 17.8694 14.8386 17.1241C14.1774 16.4482 13.3174 16.0084 12.388 15.8709C12.3005 15.8468 12.2191 15.8039 12.1494 15.7451C12.0797 15.6863 12.0233 15.6131 11.9839 15.5303C11.6733 14.7491 11.1858 14.0528 10.5608 13.4976C9.80686 12.8203 8.91999 12.4402 7.92617 12.2877C7.28584 12.192 6.63301 12.2292 6.00728 12.3968C5.93105 12.4071 5.85392 12.4087 5.77734 12.4015Z" fill="#FEDB78"/>
</g>
<defs>
<clipPath id="clip0_32_5173">
<rect width="29.3333" height="24" fill="white"/>
</clipPath>
</defs>
</svg>
