<svg width="16" height="16" viewBox="0 0 16 16" fill="none" xmlns="http://www.w3.org/2000/svg">
<path d="M14 14.668H2C1.72667 14.668 1.5 14.4413 1.5 14.168C1.5 13.8946 1.72667 13.668 2 13.668H14C14.2733 13.668 14.5 13.8946 14.5 14.168C14.5 14.4413 14.2733 14.668 14 14.668Z" fill="#5C7AEA"/>
<path d="M12.6799 2.31848C11.3866 1.02514 10.1199 0.991811 8.79322 2.31848L7.98655 3.12514C7.91989 3.19181 7.89322 3.29848 7.91989 3.39181C8.42655 5.15848 9.83989 6.57181 11.6066 7.07848C11.6332 7.08514 11.6599 7.09181 11.6866 7.09181C11.7599 7.09181 11.8266 7.06514 11.8799 7.01181L12.6799 6.20514C13.3399 5.55181 13.6599 4.91848 13.6599 4.27848C13.6666 3.61848 13.3466 2.97848 12.6799 2.31848Z" fill="#5C7AEA"/>
<path d="M10.4066 7.68849C10.2132 7.59516 10.0266 7.50182 9.84655 7.39516C9.69989 7.30849 9.55989 7.21516 9.41989 7.11516C9.30655 7.04182 9.17322 6.93516 9.04655 6.82849C9.03322 6.82182 8.98655 6.78182 8.93322 6.72849C8.71322 6.54182 8.46655 6.30182 8.24655 6.03516C8.22655 6.02182 8.19322 5.97516 8.14655 5.91516C8.07989 5.83516 7.96655 5.70182 7.86655 5.54849C7.78655 5.44849 7.69322 5.30182 7.60655 5.15516C7.49989 4.97516 7.40655 4.79516 7.31322 4.60849C7.19085 4.34626 6.84668 4.26836 6.64206 4.47298L2.89322 8.22182C2.80655 8.30849 2.72655 8.47516 2.70655 8.58849L2.34655 11.1418C2.27989 11.5952 2.40655 12.0218 2.68655 12.3085C2.92655 12.5418 3.25989 12.6685 3.61989 12.6685C3.69989 12.6685 3.77989 12.6618 3.85989 12.6485L6.41989 12.2885C6.53989 12.2685 6.70655 12.1885 6.78655 12.1018L10.5416 8.3468C10.7421 8.14627 10.6668 7.80125 10.4066 7.68849Z" fill="#5C7AEA"/>
</svg>
