<svg width="16" height="16" viewBox="0 0 16 16" fill="none" xmlns="http://www.w3.org/2000/svg">
<path d="M10.7933 1.33203H5.20659C2.77992 1.33203 1.33325 2.7787 1.33325 5.20536V10.7854C1.33325 13.2187 2.77992 14.6654 5.20659 14.6654H10.7866C13.2133 14.6654 14.6599 13.2187 14.6599 10.792V5.20536C14.6666 2.7787 13.2199 1.33203 10.7933 1.33203ZM7.29992 11.672C7.10659 11.8654 6.73992 12.052 6.47325 12.092L4.83325 12.3254C4.77325 12.332 4.71325 12.3387 4.65325 12.3387C4.37992 12.3387 4.12659 12.2454 3.94659 12.0654C3.72659 11.8454 3.63325 11.5254 3.68659 11.172L3.91992 9.53203C3.95992 9.2587 4.13992 8.8987 4.33992 8.70537L7.31325 5.73203C7.36659 5.87203 7.41992 6.01203 7.49325 6.17203C7.55992 6.31203 7.63325 6.4587 7.71325 6.59203C7.77992 6.70537 7.85325 6.81203 7.91325 6.89203C7.98659 7.00536 8.07325 7.11203 8.12659 7.17203C8.15992 7.2187 8.18659 7.25203 8.19992 7.26536C8.36659 7.46536 8.55992 7.65203 8.72659 7.79203C8.77325 7.8387 8.79992 7.86537 8.81325 7.87203C8.91325 7.95203 9.01325 8.03203 9.09992 8.09203C9.20659 8.17203 9.31325 8.24536 9.42659 8.30536C9.55992 8.38537 9.70658 8.4587 9.85325 8.53203C10.0066 8.5987 10.1466 8.6587 10.2866 8.70537L7.29992 11.672ZM11.5799 7.39203L10.9666 8.01203C10.9266 8.05203 10.8733 8.07203 10.8199 8.07203C10.7999 8.07203 10.7733 8.07203 10.7599 8.06536C9.40658 7.6787 8.32659 6.5987 7.93992 5.24536C7.91992 5.17203 7.93992 5.09203 7.99325 5.04536L8.61325 4.42536C9.62659 3.41203 10.5933 3.43203 11.5866 4.42536C12.0933 4.93203 12.3399 5.4187 12.3399 5.92536C12.3333 6.40536 12.0866 6.88537 11.5799 7.39203Z" fill="white"/>
</svg>
