<svg width="24" height="24" viewBox="0 0 24 24" fill="none" xmlns="http://www.w3.org/2000/svg">
<path d="M15.5799 12.0019C15.5799 13.9819 13.9799 15.5819 11.9999 15.5819C10.0199 15.5819 8.41992 13.9819 8.41992 12.0019C8.41992 10.0219 10.0199 8.42188 11.9999 8.42188C13.9799 8.42188 15.5799 10.0219 15.5799 12.0019Z" stroke="#A7A7A7" stroke-width="1.5" stroke-linecap="round" stroke-linejoin="round"/>
<path d="M11.9998 20.2688C15.5298 20.2688 18.8198 18.1887 21.1098 14.5887C22.0098 13.1787 22.0098 10.8087 21.1098 9.39875C18.8198 5.79875 15.5298 3.71875 11.9998 3.71875C8.46984 3.71875 5.17984 5.79875 2.88984 9.39875C1.98984 10.8087 1.98984 13.1787 2.88984 14.5887C5.17984 18.1887 8.46984 20.2688 11.9998 20.2688Z" stroke="#A7A7A7" stroke-width="1.5" stroke-linecap="round" stroke-linejoin="round"/>
</svg>
