<svg width="20" height="20" viewBox="0 0 20 20" fill="none" xmlns="http://www.w3.org/2000/svg">
<path d="M2.14992 15.8414L2.13325 15.8581C1.90825 15.3664 1.76659 14.8081 1.70825 14.1914C1.76659 14.7997 1.92492 15.3497 2.14992 15.8414Z" fill="white"/>
<path d="M7.49993 8.65026C8.5953 8.65026 9.48327 7.76229 9.48327 6.66693C9.48327 5.57156 8.5953 4.68359 7.49993 4.68359C6.40457 4.68359 5.5166 5.57156 5.5166 6.66693C5.5166 7.76229 6.40457 8.65026 7.49993 8.65026Z" fill="white"/>
<path d="M13.4917 1.66797H6.50841C3.47508 1.66797 1.66675 3.4763 1.66675 6.50964V13.493C1.66675 14.4013 1.82508 15.193 2.13341 15.8596C2.85008 17.443 4.38341 18.3346 6.50841 18.3346H13.4917C16.5251 18.3346 18.3334 16.5263 18.3334 13.493V11.5846V6.50964C18.3334 3.4763 16.5251 1.66797 13.4917 1.66797ZM16.9751 10.418C16.3251 9.85964 15.2751 9.85964 14.6251 10.418L11.1584 13.393C10.5084 13.9513 9.45842 13.9513 8.80841 13.393L8.52508 13.1596C7.93341 12.643 6.99175 12.593 6.32508 13.043L3.20841 15.1346C3.02508 14.668 2.91675 14.1263 2.91675 13.493V6.50964C2.91675 4.15964 4.15841 2.91797 6.50841 2.91797H13.4917C15.8417 2.91797 17.0834 4.15964 17.0834 6.50964V10.5096L16.9751 10.418Z" fill="white"/>
</svg>
