<svg width="64" height="64" viewBox="0 0 64 64" fill="none" xmlns="http://www.w3.org/2000/svg">
<path d="M32.0007 5.33203C17.3073 5.33203 5.33398 17.3054 5.33398 31.9987C5.33398 46.692 17.3073 58.6654 32.0007 58.6654C46.694 58.6654 58.6673 46.692 58.6673 31.9987C58.6673 17.3054 46.694 5.33203 32.0007 5.33203ZM30.0007 21.332C30.0007 20.2387 30.9073 19.332 32.0007 19.332C33.094 19.332 34.0007 20.2387 34.0007 21.332V34.6654C34.0007 35.7587 33.094 36.6654 32.0007 36.6654C30.9073 36.6654 30.0007 35.7587 30.0007 34.6654V21.332ZM34.454 43.6787C34.3207 44.0254 34.134 44.292 33.894 44.5587C33.6273 44.7987 33.334 44.9854 33.014 45.1187C32.694 45.252 32.3473 45.332 32.0007 45.332C31.654 45.332 31.3073 45.252 30.9873 45.1187C30.6673 44.9854 30.374 44.7987 30.1073 44.5587C29.8673 44.292 29.6807 44.0254 29.5473 43.6787C29.414 43.3587 29.334 43.012 29.334 42.6654C29.334 42.3187 29.414 41.972 29.5473 41.652C29.6807 41.332 29.8673 41.0387 30.1073 40.772C30.374 40.532 30.6673 40.3454 30.9873 40.212C31.6273 39.9454 32.374 39.9454 33.014 40.212C33.334 40.3454 33.6273 40.532 33.894 40.772C34.134 41.0387 34.3207 41.332 34.454 41.652C34.5873 41.972 34.6673 42.3187 34.6673 42.6654C34.6673 43.012 34.5873 43.3587 34.454 43.6787Z" fill="#FE9365"/>
</svg>
