<svg width="16" height="16" viewBox="0 0 16 16" fill="none" xmlns="http://www.w3.org/2000/svg">
<path d="M11.334 1.62109H4.66732C2.66732 1.62109 1.33398 2.95443 1.33398 4.95443V8.95443C1.33398 10.9544 2.66732 12.2878 4.66732 12.2878H7.33398L10.3007 14.2611C10.7407 14.5544 11.334 14.2411 11.334 13.7078V12.2878C13.334 12.2878 14.6673 10.9544 14.6673 8.95443V4.95443C14.6673 2.95443 13.334 1.62109 11.334 1.62109ZM10.334 7.50109H5.66732C5.39398 7.50109 5.16732 7.27443 5.16732 7.00109C5.16732 6.72776 5.39398 6.50109 5.66732 6.50109H10.334C10.6073 6.50109 10.834 6.72776 10.834 7.00109C10.834 7.27443 10.6073 7.50109 10.334 7.50109Z" fill="#A7A7A7"/>
</svg>
