<svg width="31" height="24" viewBox="0 0 31 24" fill="none" xmlns="http://www.w3.org/2000/svg">
<g clip-path="url(#clip0_32_5200)">
<path d="M11.8985 6.06643L14.0914 4.96289C14.6206 5.14904 15.1457 5.35105 15.6774 5.51633C16.3527 5.72502 16.7768 6.15408 16.9804 6.82856C17.1382 7.35028 17.326 7.86282 17.5305 8.46969C17.7409 7.83778 17.9229 7.30103 18.099 6.76011C18.2584 6.27178 18.5339 5.86526 19.0172 5.66826C19.5181 5.46458 20.0406 5.3235 20.554 5.15488C21.6325 5.67076 22.6284 6.30267 23.4681 7.16831C24.5981 8.32028 25.3973 9.75498 25.7821 11.322C25.8388 11.5524 25.9282 11.6635 26.1627 11.7319C28.5994 12.4448 30.2413 14.8597 30.0427 17.4182C29.844 19.9768 27.8264 22.1187 25.2946 22.4359C25.0263 22.4708 24.7562 22.4895 24.4857 22.4919C23.3171 22.4977 22.1484 22.4919 20.9797 22.4919C20.7961 22.4234 20.6158 22.3399 20.4271 22.2899C20.2586 22.2526 20.1043 22.1681 19.982 22.0463C19.8598 21.9245 19.7747 21.7704 19.7368 21.602C19.6892 21.4267 19.6233 21.2556 19.5657 21.0828C19.4565 21.2376 19.3773 21.4114 19.3319 21.5953C19.2945 21.7638 19.2104 21.9183 19.0892 22.0412C18.9679 22.164 18.8146 22.2502 18.6466 22.2899C18.458 22.3424 18.2785 22.4243 18.0948 22.4927C14.0788 22.4927 10.0628 22.4994 6.04601 22.4927C2.52252 22.4869 -0.189599 19.6003 0.00740295 16.0843C0.160998 13.3455 2.2195 11.0758 5.04013 10.5574C5.11999 10.5484 5.19568 10.517 5.25857 10.467C5.32146 10.4169 5.36899 10.3502 5.39574 10.2744C5.72964 9.5749 6.20962 8.99308 6.89078 8.59741C6.87659 8.66836 6.86574 8.74015 6.84654 8.81027C6.49469 10.059 6.42061 11.3697 6.6295 12.6501C7.38078 17.2187 11.5637 20.4442 16.1599 19.93C19.5949 19.5452 21.9764 17.6812 23.3805 14.5417C23.4233 14.4344 23.4604 14.3249 23.4915 14.2136C22.7795 14.3472 22.1025 14.5425 21.4155 14.5909C18.2927 14.8105 15.7058 13.7153 13.7424 11.2686C12.5354 9.75938 11.9001 8.01809 11.8985 6.06643ZM22.6067 8.96637C22.3521 9.51981 22.2461 10.0432 21.9305 10.3571C21.615 10.6709 21.0841 10.7861 20.6784 10.9748C21.0858 11.1634 21.6142 11.2753 21.9305 11.5942C22.2469 11.913 22.3546 12.4398 22.5382 12.8405C22.7311 12.4273 22.8429 11.898 23.1643 11.5783C23.4857 11.2586 24.0107 11.1609 24.4465 10.9631L24.5099 10.8905C23.3296 10.817 22.7177 10.1692 22.6067 8.96637ZM5.06183 14.9849C4.864 15.4065 4.78219 15.7871 4.55013 16.0184C4.31807 16.2496 3.93074 16.3397 3.62355 16.485C3.93241 16.6302 4.3139 16.7112 4.54178 16.9433C4.76967 17.1753 4.864 17.5652 5.00841 17.869C5.15783 17.5585 5.24798 17.1728 5.48589 16.9358C5.72379 16.6987 6.10361 16.6252 6.42165 16.4791C5.60109 16.3523 5.15199 15.8823 5.06183 14.9849Z" fill="#6F84B6"/>
<path d="M11.8985 6.06659C11.8985 8.01824 12.5354 9.75954 13.745 11.2671C15.7083 13.7138 18.2952 14.809 21.418 14.5894C22.105 14.541 22.782 14.3457 23.4941 14.2121C23.4629 14.3234 23.4259 14.4329 23.383 14.5402C21.979 17.6797 19.5974 19.5437 16.1624 19.9285C11.5663 20.4427 7.38581 17.2172 6.63203 12.6486C6.42314 11.3682 6.49722 10.0575 6.84907 8.80875C6.86827 8.73863 6.87912 8.66684 6.89331 8.59589C7.23806 7.66514 7.6521 6.77195 8.26064 5.9781C9.23039 4.68917 10.5347 3.69056 12.0321 3.09069C12.1155 3.05647 12.204 3.03726 12.3501 2.99219C12.0346 4.02895 11.825 5.03066 11.8985 6.06659Z" fill="#FDE253"/>
<path d="M20.5542 5.15415C20.0408 5.3211 19.5166 5.46385 19.0174 5.66753C18.5374 5.86453 18.262 6.27105 18.0992 6.75938C17.9231 7.29947 17.7411 7.83705 17.5307 8.46896C17.3262 7.86209 17.1384 7.34955 16.9806 6.82783C16.777 6.15335 16.3529 5.72429 15.6776 5.5156C15.1425 5.34865 14.6174 5.14831 14.0916 4.96216C14.63 4.77517 15.1642 4.5765 15.7068 4.40287C16.3521 4.19669 16.7694 3.78182 16.9723 3.13488C17.1392 2.60398 17.3237 2.07892 17.5316 1.45703C17.7361 2.06306 17.9239 2.57477 18.0808 3.09482C18.287 3.78098 18.7219 4.21255 19.4081 4.4179C19.9248 4.57233 20.4315 4.75848 21.0008 4.94964L20.5542 5.15415Z" fill="#FCE154"/>
<path d="M23.0925 1.46249C23.9273 1.30556 24.4281 0.87816 24.5316 0C24.6986 0.834753 25.116 1.34646 26.0067 1.44162C25.1861 1.61692 24.6627 2.02594 24.5584 2.90828C24.3973 2.08104 23.9532 1.5852 23.0925 1.46249Z" fill="#FDE35A"/>
<path d="M6.95515 1.46094C7.16384 1.88917 7.2565 2.27398 7.49524 2.51272C7.73398 2.75146 8.10461 2.81824 8.52365 3.0094C7.62629 3.10373 7.14715 3.55617 7.0211 4.41513C6.87001 3.58037 6.42842 3.09121 5.56445 2.97017C6.38835 2.8099 6.89171 2.38 6.95515 1.46094Z" fill="#FDE35A"/>
<path d="M18.0974 22.4939C18.2811 22.4254 18.4605 22.3436 18.6492 22.291C18.8171 22.2514 18.9705 22.1652 19.0917 22.0423C19.2129 21.9195 19.2971 21.765 19.3345 21.5965C19.3798 21.4126 19.4591 21.2388 19.5682 21.084C19.6258 21.2568 19.6918 21.4279 19.7394 21.6032C19.7773 21.7716 19.8623 21.9256 19.9846 22.0474C20.1068 22.1692 20.2612 22.2537 20.4297 22.291C20.6184 22.3411 20.7987 22.4246 20.9823 22.493C20.8022 22.571 20.6184 22.6398 20.4314 22.6992C20.2626 22.7362 20.108 22.8206 19.9855 22.9424C19.8631 23.0643 19.778 23.2185 19.7402 23.3871C19.6926 23.5632 19.6258 23.7335 19.5357 24.0014C19.4522 23.751 19.3863 23.5841 19.3445 23.4238C19.3079 23.2441 19.2199 23.0789 19.0911 22.9483C18.9623 22.8177 18.7983 22.7274 18.6191 22.6884C18.4419 22.6328 18.2677 22.5679 18.0974 22.4939Z" fill="#FBE058"/>
<path d="M22.6068 8.9668C22.7178 10.1697 23.3297 10.8174 24.5117 10.8909L24.4483 10.9635C24.0125 11.1597 23.4841 11.2632 23.1661 11.5787C22.848 11.8943 22.7328 12.4277 22.54 12.8409C22.3564 12.4402 22.2487 11.9126 21.9323 11.5946C21.6159 11.2766 21.085 11.1639 20.6802 10.9752C21.0867 10.7866 21.6134 10.6755 21.9323 10.3575C22.2512 10.0395 22.3522 9.52024 22.6068 8.9668Z" fill="#F9DF56"/>
<path d="M5.06196 14.9844C5.15211 15.8809 5.60121 16.3517 6.42261 16.4786C6.10457 16.6247 5.72058 16.704 5.48685 16.9352C5.25312 17.1664 5.15879 17.5579 5.00937 17.8684C4.86496 17.5646 4.77814 17.1798 4.54274 16.9427C4.30734 16.7056 3.93254 16.6297 3.62451 16.4844C3.9317 16.3392 4.31485 16.2524 4.55109 16.0178C4.78733 15.7832 4.86412 15.4059 5.06196 14.9844Z" fill="#F7DE56"/>
</g>
<defs>
<clipPath id="clip0_32_5200">
<rect width="30.0595" height="24" fill="white"/>
</clipPath>
</defs>
</svg>
