<svg width="16" height="16" viewBox="0 0 16 16" fill="none" xmlns="http://www.w3.org/2000/svg">
<path d="M9.03332 13.4399C8.85998 13.5133 8.67332 13.5799 8.47332 13.6466L7.41998 13.9933C4.77332 14.8466 3.37998 14.1333 2.51998 11.4866L1.66665 8.85328C0.813317 6.20661 1.51998 4.80661 4.16665 3.95328L5.19332 3.61328C5.06665 3.93328 4.95998 4.29995 4.85998 4.71328L4.20665 7.50661C3.47332 10.6466 4.54665 12.3799 7.68665 13.1266L8.80665 13.3933C8.87998 13.4133 8.95998 13.4266 9.03332 13.4399Z" fill="#5C7AEA"/>
<path d="M11.4467 2.14033L10.3334 1.88033C8.1067 1.35366 6.78004 1.787 6.00004 3.40033C5.80004 3.807 5.64004 4.30033 5.50671 4.867L4.85337 7.66033C4.20004 10.447 5.06004 11.8203 7.84004 12.4803L8.96004 12.747C9.3467 12.8403 9.70671 12.9003 10.04 12.927C12.12 13.127 13.2267 12.1537 13.7867 9.747L14.44 6.96033C15.0934 4.17366 14.24 2.79366 11.4467 2.14033Z" fill="#5C7AEA"/>
</svg>
