<svg width="24" height="24" viewBox="0 0 24 24" fill="none" xmlns="http://www.w3.org/2000/svg">
<path d="M12 2C9.38 2 7.25 4.13 7.25 6.75C7.25 9.32 9.26 11.4 11.88 11.49C11.96 11.48 12.04 11.48 12.1 11.49C12.12 11.49 12.13 11.49 12.15 11.49C12.16 11.49 12.16 11.49 12.17 11.49C14.73 11.4 16.74 9.32 16.75 6.75C16.75 4.13 14.62 2 12 2Z" fill="#5C7AEA"/>
<path d="M17.08 14.1489C14.29 12.2889 9.73996 12.2889 6.92996 14.1489C5.65996 14.9989 4.95996 16.1489 4.95996 17.3789C4.95996 18.6089 5.65996 19.7489 6.91996 20.5889C8.31996 21.5289 10.16 21.9989 12 21.9989C13.84 21.9989 15.68 21.5289 17.08 20.5889C18.34 19.7389 19.04 18.5989 19.04 17.3589C19.03 16.1289 18.34 14.9889 17.08 14.1489Z" fill="#5C7AEA"/>
</svg>
