<svg id="Hicon_Bold_Like_1" data-name="Hicon / Bold / Like 1" xmlns="http://www.w3.org/2000/svg" xmlns:xlink="http://www.w3.org/1999/xlink" width="24" height="24" viewBox="0 0 24 24">
  <defs>
    <linearGradient id="linear-gradient" x1="0.5" x2="0.5" y2="1" gradientUnits="objectBoundingBox">
      <stop offset="0" stop-color="#a682c1"/>
      <stop offset="1" stop-color="#d0a3f1"/>
    </linearGradient>
  </defs>
  <g id="Like_1" data-name="Like 1">
    <path id="Vector" d="M19.455,2.73C20,3.8,20,5.2,20,8V9.184a12.521,12.521,0,0,1-.2,3.223A5,5,0,0,1,16.407,15.8a12.521,12.521,0,0,1-3.223.2H12.57a5,5,0,0,0-2.848.913l-.053.038L7.058,18.815A1.1,1.1,0,0,1,5.4,17.51,1.1,1.1,0,0,0,4.373,16h-.6A3.772,3.772,0,0,1,0,12.228V8C0,5.2,0,3.8.545,2.73A5,5,0,0,1,2.73.545C3.8,0,5.2,0,8,0h4c2.8,0,4.2,0,5.27.545A5,5,0,0,1,19.455,2.73ZM10.8,4.573a2.513,2.513,0,0,1,3.355.157C16.926,7.556,12.175,13,10,13S3.074,7.556,5.844,4.73A2.513,2.513,0,0,1,9.2,4.573,1.536,1.536,0,0,0,10.8,4.573Z" transform="translate(2 2)" fill="url(#linear-gradient)"/>
  </g>
</svg>
