<svg width="24" height="24" viewBox="0 0 24 24" fill="none" xmlns="http://www.w3.org/2000/svg">
<path d="M12 2C9.38 2 7.25 4.13 7.25 6.75C7.25 9.32 9.26 11.4 11.88 11.49C11.96 11.48 12.04 11.48 12.1 11.49C12.12 11.49 12.13 11.49 12.15 11.49C12.16 11.49 12.16 11.49 12.17 11.49C14.73 11.4 16.74 9.32 16.75 6.75C16.75 4.13 14.62 2 12 2Z" fill="#5C7AEA"/>
<path d="M17.08 14.1509C14.29 12.2909 9.73996 12.2909 6.92996 14.1509C5.65996 15.0009 4.95996 16.1509 4.95996 17.3809C4.95996 18.6109 5.65996 19.7509 6.91996 20.5909C8.31996 21.5309 10.16 22.0009 12 22.0009C13.84 22.0009 15.68 21.5309 17.08 20.5909C18.34 19.7409 19.04 18.6009 19.04 17.3609C19.03 16.1309 18.34 14.9909 17.08 14.1509ZM14 18.1309H12.75V19.3809C12.75 19.7909 12.41 20.1309 12 20.1309C11.59 20.1309 11.25 19.7909 11.25 19.3809V18.1309H9.99996C9.58996 18.1309 9.24996 17.7909 9.24996 17.3809C9.24996 16.9709 9.58996 16.6309 9.99996 16.6309H11.25V15.3809C11.25 14.9709 11.59 14.6309 12 14.6309C12.41 14.6309 12.75 14.9709 12.75 15.3809V16.6309H14C14.41 16.6309 14.75 16.9709 14.75 17.3809C14.75 17.7909 14.41 18.1309 14 18.1309Z" fill="#5C7AEA"/>
</svg>
