<svg width="16" height="16" viewBox="0 0 16 16" fill="none" xmlns="http://www.w3.org/2000/svg">
<path d="M7.99992 1.33398C6.25325 1.33398 4.83325 2.75398 4.83325 4.50065C4.83325 6.21398 6.17325 7.60065 7.91992 7.66065C7.97325 7.65398 8.02659 7.65398 8.06659 7.66065C8.07992 7.66065 8.08659 7.66065 8.09992 7.66065C8.10659 7.66065 8.10659 7.66065 8.11325 7.66065C9.81992 7.60065 11.1599 6.21398 11.1666 4.50065C11.1666 2.75398 9.74659 1.33398 7.99992 1.33398Z" fill="#A7A7A7"/>
<path d="M11.3866 9.43977C9.52664 8.19977 6.49331 8.19977 4.61997 9.43977C3.77331 9.99977 3.30664 10.7664 3.30664 11.5864C3.30664 12.4064 3.77331 13.1664 4.61331 13.7264C5.54664 14.3531 6.77331 14.6664 7.99997 14.6664C9.22664 14.6664 10.4533 14.3531 11.3866 13.7264C12.2266 13.1598 12.6933 12.3998 12.6933 11.5731C12.6866 10.7598 12.2266 9.9931 11.3866 9.43977ZM9.55331 11.0398L7.87331 12.7198C7.79331 12.7998 7.68664 12.8398 7.57997 12.8398C7.47331 12.8398 7.36664 12.7931 7.28664 12.7198L6.44664 11.8798C6.28664 11.7198 6.28664 11.4531 6.44664 11.2931C6.60664 11.1331 6.87331 11.1331 7.03331 11.2931L7.57997 11.8398L8.96664 10.4531C9.12664 10.2931 9.39331 10.2931 9.55331 10.4531C9.71997 10.6131 9.71997 10.8798 9.55331 11.0398Z" fill="#A7A7A7"/>
</svg>
