<svg width="24" height="24" viewBox="0 0 24 24" fill="none" xmlns="http://www.w3.org/2000/svg">
<path d="M12 24C18.6274 24 24 18.6274 24 12C24 5.37258 18.6274 0 12 0C5.37258 0 0 5.37258 0 12C0 18.6274 5.37258 24 12 24Z" fill="#FFCC4D"/>
<path d="M8.33317 13.3307C9.25364 13.3307 9.99984 12.2861 9.99984 10.9974C9.99984 9.70873 9.25364 8.66406 8.33317 8.66406C7.4127 8.66406 6.6665 9.70873 6.6665 10.9974C6.6665 12.2861 7.4127 13.3307 8.33317 13.3307Z" fill="#664500"/>
<path d="M15.6667 13.3307C16.5871 13.3307 17.3333 12.2861 17.3333 10.9974C17.3333 9.70873 16.5871 8.66406 15.6667 8.66406C14.7462 8.66406 14 9.70873 14 10.9974C14 12.2861 14.7462 13.3307 15.6667 13.3307Z" fill="#664500"/>
<path d="M19.3333 8.00075C15.6307 8.00075 14.132 5.08942 14.07 4.96542C13.9053 4.63608 14.0387 4.23542 14.368 4.07075C14.696 3.90608 15.096 4.03875 15.2613 4.36608C15.3113 4.46342 16.4753 6.66742 19.3333 6.66742C19.702 6.66742 20 6.96608 20 7.33408C20 7.70275 19.702 8.00075 19.3333 8.00075ZM4.66667 7.99675C4.29867 7.99675 4 7.69808 4 7.33008C4 6.96208 4.29867 6.66342 4.66667 6.66342C8.05533 6.66342 8.664 4.58342 8.68867 4.49475C8.78533 4.14275 9.14867 3.92942 9.50133 4.02208C9.85467 4.11475 10.0687 4.47075 9.98 4.82542C9.94733 4.95475 9.136 7.99675 4.66667 7.99675Z" fill="#664500"/>
<path d="M23.9784 11.3789L21.3084 11.9209L10.5171 18.9262L15.2624 19.5682L23.0524 14.7609C23.5211 14.4736 23.7151 14.2042 23.8511 13.5962C23.9871 12.9882 23.9784 11.3789 23.9784 11.3789Z" fill="#FFAC33"/>
<path d="M15.6564 19.5834C15.6491 19.5541 14.8931 17.6641 11.9998 17.6641C9.10642 17.6641 8.35042 19.5541 8.34309 19.5834C8.30776 19.7254 8.37242 19.8707 8.49775 19.9461C8.62309 20.0207 8.78642 20.0034 8.89509 19.9061C8.90109 19.9007 9.57042 19.3307 11.9998 19.3307C14.3931 19.3307 15.0778 19.8841 15.1038 19.9061C15.1671 19.9661 15.2498 19.9974 15.3331 19.9974C15.3891 19.9974 15.4458 19.9834 15.4971 19.9547C15.6278 19.8801 15.6931 19.7287 15.6564 19.5834Z" fill="#664500"/>
<path d="M23.6494 10.4868C23.0967 9.75084 22.0514 9.60151 21.3154 10.1535L9.84473 18.7588C10.2754 18.5975 10.8514 18.4628 11.5881 18.4108C11.7587 18.3988 13.3614 17.9928 13.3614 17.9928L14.2234 18.6835C14.2234 18.6835 14.8307 18.9282 15.0214 19.0428L23.3174 12.8195C24.0527 12.2682 24.2014 11.2228 23.6494 10.4868Z" fill="#CCD6DD"/>
<path d="M19.1241 13.9141C18.8254 13.5168 18.5994 13.1508 18.2021 13.4488L11.5874 18.4108C11.7581 18.3988 11.9207 18.3828 12.1094 18.3814C13.0161 18.3754 13.7094 18.5114 14.2227 18.6828L19.2814 14.8881C19.6787 14.5901 19.4221 14.3121 19.1241 13.9141Z" fill="#DA2F47"/>
<path d="M12.3994 16.8163L13.2221 17.8816L13.7161 17.4849L12.9181 16.4269L12.3994 16.8163ZM13.8814 15.7089L14.7047 16.7743L15.1987 16.3776L14.4007 15.3196L13.8814 15.7089ZM15.3374 14.6296L16.1601 15.6949L16.6541 15.2983L15.8561 14.2403L15.3374 14.6296ZM16.7914 13.5229L17.6147 14.5876L18.1087 14.1916L17.3107 13.1336L16.7914 13.5229ZM18.2834 12.4289L19.1067 13.4943L19.6001 13.0976L18.8027 12.0396L18.2834 12.4289ZM19.7101 11.3503L20.5334 12.4156L21.0267 12.0189L20.2294 10.9609L19.7101 11.3503Z" fill="#67757F"/>
<path d="M15.0205 19.0423L15.5572 19.3902C15.5572 19.3902 15.4258 19.1489 15.2065 18.9062L15.0205 19.0423Z" fill="#452E04"/>
</svg>
