<svg width="24" height="24" viewBox="0 0 24 24" fill="none" xmlns="http://www.w3.org/2000/svg">
<path d="M12 24C18.6274 24 24 18.6274 24 12C24 5.37258 18.6274 0 12 0C5.37258 0 0 5.37258 0 12C0 18.6274 5.37258 24 12 24Z" fill="#DD2E44"/>
<path d="M12 21C16.9706 21 21 16.9706 21 12C21 7.02944 16.9706 3 12 3C7.02944 3 3 7.02944 3 12C3 16.9706 7.02944 21 12 21Z" fill="white"/>
<path d="M12.0002 18.6693C15.6821 18.6693 18.6668 15.6845 18.6668 12.0026C18.6668 8.32071 15.6821 5.33594 12.0002 5.33594C8.31826 5.33594 5.3335 8.32071 5.3335 12.0026C5.3335 15.6845 8.31826 18.6693 12.0002 18.6693Z" fill="#DD2E44"/>
<path d="M12 16C14.2091 16 16 14.2091 16 12C16 9.79086 14.2091 8 12 8C9.79086 8 8 9.79086 8 12C8 14.2091 9.79086 16 12 16Z" fill="white"/>
<path d="M12 14C13.1046 14 14 13.1046 14 12C14 10.8954 13.1046 10 12 10C10.8954 10 10 10.8954 10 12C10 13.1046 10.8954 14 12 14Z" fill="#DD2E44"/>
<path opacity="0.2" d="M12.1604 12.1875L20.9231 20.0235C20.9231 20.0235 19.1584 22.2742 15.6631 23.4295L11.7197 12.2795L12.1604 12.1875Z" fill="black"/>
<path d="M12.1961 12.6673C12.0261 12.6673 11.8567 12.6027 11.7267 12.4727C11.4674 12.2133 11.4674 11.794 11.7267 11.5347L12.1021 11.1593C12.3614 10.9 12.7807 10.9 13.0407 11.1593C13.2994 11.4187 13.2994 11.838 13.0407 12.0973L12.6647 12.4727C12.5354 12.6027 12.3661 12.6673 12.1961 12.6673Z" fill="#FFAC33"/>
<path d="M16.011 4.65388C15.7423 6.03988 16.011 7.78121 16.011 7.78121L20.7137 2.85588C20.9077 1.88654 20.3617 0.234543 19.5683 0.030543C18.775 -0.173457 16.849 0.565876 16.011 4.65388ZM19.3463 7.98921C17.9603 8.25788 16.219 7.98921 16.219 7.98921L21.1443 3.28654C22.1137 3.09254 23.7657 3.63854 23.9697 4.43188C24.1737 5.22521 23.4343 7.15121 19.3463 7.98921Z" fill="#55ACEE"/>
<path d="M21.8649 2.99147L14.1169 11.7261C13.8756 11.9675 13.0016 12.3141 12.4436 11.7568C11.8863 11.1995 12.1642 10.3701 12.4056 10.1281L21.2096 2.33547C21.2096 2.33547 21.6602 1.91214 21.9822 2.23414C22.3042 2.55614 21.8649 2.99147 21.8649 2.99147Z" fill="#3A87C2"/>
</svg>
