<svg width="16" height="16" viewBox="0 0 16 16" fill="none" xmlns="http://www.w3.org/2000/svg">
<path d="M5.10004 13.9392C5.08004 13.9392 5.05337 13.9526 5.03337 13.9526C3.74004 13.3126 2.68671 12.2526 2.04004 10.9592C2.04004 10.9392 2.05337 10.9126 2.05337 10.8926C2.86671 11.1326 3.70671 11.3126 4.54004 11.4526C4.68671 12.2926 4.86004 13.1259 5.10004 13.9392Z" fill="#A7A7A7"/>
<path d="M13.9601 10.9659C13.3001 12.2926 12.2001 13.3659 10.8601 14.0126C11.1134 13.1659 11.3268 12.3126 11.4668 11.4526C12.3068 11.3126 13.1334 11.1326 13.9468 10.8926C13.9401 10.9192 13.9601 10.9459 13.9601 10.9659Z" fill="#A7A7A7"/>
<path d="M14.0134 5.13966C13.1734 4.88633 12.3268 4.67966 11.4668 4.53299C11.3268 3.67299 11.1201 2.81966 10.8601 1.98633C12.2401 2.64633 13.3534 3.75966 14.0134 5.13966Z" fill="#A7A7A7"/>
<path d="M5.09991 2.05906C4.85991 2.8724 4.68657 3.69906 4.54657 4.53906C3.68657 4.6724 2.83324 4.88573 1.98657 5.13906C2.63324 3.79906 3.70657 2.69906 5.03324 2.03906C5.05324 2.03906 5.07991 2.05906 5.09991 2.05906Z" fill="#A7A7A7"/>
<path d="M10.3267 4.39398C8.78001 4.22065 7.22001 4.22065 5.67334 4.39398C5.84001 3.48065 6.05334 2.56732 6.35334 1.68732C6.36667 1.63398 6.36001 1.59398 6.36667 1.54065C6.89334 1.41398 7.43334 1.33398 8.00001 1.33398C8.56001 1.33398 9.10667 1.41398 9.62667 1.54065C9.63334 1.59398 9.63334 1.63398 9.64667 1.68732C9.94667 2.57398 10.16 3.48065 10.3267 4.39398Z" fill="#A7A7A7"/>
<path d="M4.39325 10.3272C3.47325 10.1605 2.56659 9.94716 1.68659 9.64716C1.63325 9.63383 1.59325 9.64049 1.53992 9.63383C1.41325 9.10716 1.33325 8.56716 1.33325 8.00049C1.33325 7.44049 1.41325 6.89383 1.53992 6.37383C1.59325 6.36716 1.63325 6.36716 1.68659 6.35383C2.57325 6.06049 3.47325 5.84049 4.39325 5.67383C4.22659 7.22049 4.22659 8.78049 4.39325 10.3272Z" fill="#A7A7A7"/>
<path d="M14.6667 8.00049C14.6667 8.56716 14.5867 9.10716 14.46 9.63383C14.4067 9.64049 14.3667 9.63383 14.3134 9.64716C13.4267 9.9405 12.52 10.1605 11.6067 10.3272C11.78 8.78049 11.78 7.22049 11.6067 5.67383C12.52 5.84049 13.4334 6.05383 14.3134 6.35383C14.3667 6.36716 14.4067 6.37383 14.46 6.37383C14.5867 6.90049 14.6667 7.44049 14.6667 8.00049Z" fill="#A7A7A7"/>
<path d="M10.3267 11.6074C10.16 12.5274 9.94667 13.4341 9.64667 14.3141C9.63334 14.3674 9.63334 14.4074 9.62667 14.4608C9.10667 14.5874 8.56001 14.6674 8.00001 14.6674C7.43334 14.6674 6.89334 14.5874 6.36667 14.4608C6.36001 14.4074 6.36667 14.3674 6.35334 14.3141C6.06001 13.4274 5.84001 12.5274 5.67334 11.6074C6.44667 11.6941 7.22001 11.7541 8.00001 11.7541C8.78001 11.7541 9.56001 11.6941 10.3267 11.6074Z" fill="#A7A7A7"/>
<path d="M10.5088 10.5095C8.84141 10.7199 7.15843 10.7199 5.49103 10.5095C5.28066 8.84214 5.28066 7.15916 5.49103 5.49176C7.15843 5.28139 8.84141 5.28139 10.5088 5.49176C10.7192 7.15916 10.7192 8.84214 10.5088 10.5095Z" fill="#A7A7A7"/>
</svg>
