<svg width="16" height="16" viewBox="0 0 16 16" fill="none" xmlns="http://www.w3.org/2000/svg">
<path d="M10.6673 8.5987V11.3987C10.6673 13.732 9.73398 14.6654 7.40065 14.6654H4.60065C2.26732 14.6654 1.33398 13.732 1.33398 11.3987V8.5987C1.33398 6.26536 2.26732 5.33203 4.60065 5.33203H7.40065C9.73398 5.33203 10.6673 6.26536 10.6673 8.5987Z" fill="white"/>
<path d="M11.3998 1.33203H8.59984C6.67914 1.33203 5.71152 1.96896 5.42907 3.4913C5.32748 4.03887 5.79484 4.4987 6.35175 4.4987H7.39984C10.1998 4.4987 11.4998 5.7987 11.4998 8.5987V9.64679C11.4998 10.2037 11.9597 10.6711 12.5072 10.5695C14.0296 10.287 14.6665 9.3194 14.6665 7.3987V4.5987C14.6665 2.26536 13.7332 1.33203 11.3998 1.33203Z" fill="white"/>
</svg>
