<svg width="24" height="24" viewBox="0 0 24 24" fill="none" xmlns="http://www.w3.org/2000/svg">
<path d="M21.2699 9.17834C20.9799 8.71834 20.6699 8.28834 20.3499 7.88834C19.9799 7.41834 19.2799 7.37834 18.8599 7.79834L15.8599 10.7983C16.0799 11.4583 16.1199 12.2183 15.9199 13.0083C15.5699 14.4183 14.4299 15.5583 13.0199 15.9083C12.2299 16.1083 11.4699 16.0683 10.8099 15.8483C10.8099 15.8483 9.37995 17.2783 8.34995 18.3083C7.84995 18.8083 8.00995 19.6883 8.67995 19.9483C9.74995 20.3583 10.8599 20.5683 11.9999 20.5683C13.7799 20.5683 15.5099 20.0483 17.0899 19.0783C18.6999 18.0783 20.1499 16.6083 21.3199 14.7383C22.2699 13.2283 22.2199 10.6883 21.2699 9.17834Z" fill="#A7A7A7"/>
<path d="M14.0199 9.98062L9.97989 14.0206C9.46989 13.5006 9.13989 12.7806 9.13989 12.0006C9.13989 10.4306 10.4199 9.14062 11.9999 9.14062C12.7799 9.14062 13.4999 9.47062 14.0199 9.98062Z" fill="#A7A7A7"/>
<path d="M18.25 5.74969L14.86 9.13969C14.13 8.39969 13.12 7.95969 12 7.95969C9.76 7.95969 7.96 9.76969 7.96 11.9997C7.96 13.1197 8.41 14.1297 9.14 14.8597L5.76 18.2497H5.75C4.64 17.3497 3.62 16.1997 2.75 14.8397C1.75 13.2697 1.75 10.7197 2.75 9.14969C3.91 7.32969 5.33 5.89969 6.91 4.91969C8.49 3.95969 10.22 3.42969 12 3.42969C14.23 3.42969 16.39 4.24969 18.25 5.74969Z" fill="#A7A7A7"/>
<path d="M14.8601 11.9981C14.8601 13.5681 13.5801 14.8581 12.0001 14.8581C11.9401 14.8581 11.8901 14.8581 11.8301 14.8381L14.8401 11.8281C14.8601 11.8881 14.8601 11.9381 14.8601 11.9981Z" fill="#A7A7A7"/>
<path d="M21.7699 2.22891C21.4699 1.92891 20.9799 1.92891 20.6799 2.22891L2.22988 20.6889C1.92988 20.9889 1.92988 21.4789 2.22988 21.7789C2.37988 21.9189 2.56988 21.9989 2.76988 21.9989C2.96988 21.9989 3.15988 21.9189 3.30988 21.7689L21.7699 3.30891C22.0799 3.00891 22.0799 2.52891 21.7699 2.22891Z" fill="#A7A7A7"/>
</svg>
