<svg width="17" height="16" viewBox="0 0 17 16" fill="none" xmlns="http://www.w3.org/2000/svg">
<path d="M17 12L13.0465 16L10.2791 13.2L11.4651 12L13.0465 13.6L15.814 10.8L17 12ZM8.77674 14.32C8.46047 14.4 8.22326 14.4 7.90698 14.4C4.42791 14.4 1.5814 11.52 1.5814 8C1.5814 4.48 4.42791 1.6 7.90698 1.6C11.386 1.6 14.2326 4.48 14.2326 8C14.2326 8.32 14.2326 8.56 14.1535 8.88C14.707 8.96 15.1814 9.12 15.6558 9.36C15.7349 8.88 15.814 8.48 15.814 8C15.814 3.6 12.2558 0 7.90698 0C3.55814 0 0 3.6 0 8C0 12.4 3.55814 16 7.90698 16C8.3814 16 8.85581 15.92 9.25116 15.84C9.01395 15.44 8.85581 14.88 8.77674 14.32ZM10.7535 9.68L8.30233 8.24V4H7.11628V8.8L9.88372 10.48C10.1209 10.16 10.4372 9.92 10.7535 9.68Z" fill="#5C7AEA"/>
</svg>
