<svg width="32" height="32" viewBox="0 0 32 32" fill="none" xmlns="http://www.w3.org/2000/svg">
<path d="M17.2002 14.1199L19.4269 12.0799L17.2002 10.2266V14.1199Z" fill="white"/>
<path d="M17.2002 21.7722L19.4269 19.9189L17.2002 17.8789V21.7722Z" fill="white"/>
<path d="M15.9998 2.66797C8.63984 2.66797 2.6665 8.6413 2.6665 16.0013C2.6665 23.3613 8.63984 29.3346 15.9998 29.3346C23.3598 29.3346 29.3332 23.3613 29.3332 16.0013C29.3332 8.6413 23.3598 2.66797 15.9998 2.66797ZM20.9598 18.6013C21.3465 18.9613 21.5598 19.4546 21.5465 19.9613C21.5332 20.468 21.2932 20.9613 20.8932 21.2946L18.1332 23.6013C17.6265 24.028 17.1598 24.148 16.7998 24.148C16.5065 24.148 16.2798 24.068 16.1465 24.0146C15.8532 23.8813 15.1865 23.4413 15.1865 22.228V18.668L12.1198 21.4813C11.7198 21.8546 11.0798 21.828 10.7065 21.4146C10.3332 21.0013 10.3598 20.3746 10.7732 20.0013L15.1465 16.0013L10.7732 11.988C10.3732 11.6146 10.3465 10.988 10.7198 10.5746C11.0932 10.1746 11.7332 10.1346 12.1332 10.508L15.1998 13.3346V9.77464C15.1998 8.57464 15.8665 8.13464 16.1598 7.98797C16.4398 7.85464 17.2132 7.62797 18.1465 8.38797L20.8932 10.6813C21.2932 11.0146 21.5332 11.508 21.5465 12.0146C21.5598 12.5213 21.3465 13.028 20.9598 13.3746L18.1065 16.0013L20.9598 18.6013Z" fill="white"/>

</svg>
