<svg width="32" height="32" viewBox="0 0 32 32" fill="none" xmlns="http://www.w3.org/2000/svg">
<path d="M27.9602 1.33203H24.0402C22.3468 1.33203 21.3335 2.34536 21.3335 4.0387V7.9587C21.3335 9.65203 22.3468 10.6654 24.0402 10.6654H27.9602C29.6535 10.6654 30.6668 9.65203 30.6668 7.9587V4.0387C30.6668 2.34536 29.6535 1.33203 27.9602 1.33203ZM28.2535 5.74536C28.0935 5.90536 27.8802 5.98536 27.6668 5.98536C27.4535 5.98536 27.2402 5.90536 27.0802 5.74536L26.8402 5.50536V8.49203C26.8402 8.9587 26.4668 9.33203 26.0002 9.33203C25.5335 9.33203 25.1602 8.9587 25.1602 8.49203V5.50536L24.9202 5.74536C24.6002 6.06536 24.0668 6.06536 23.7468 5.74536C23.4268 5.42536 23.4268 4.89203 23.7468 4.57203L25.4135 2.90536C25.4802 2.8387 25.5735 2.78536 25.6668 2.74536C25.6935 2.73203 25.7202 2.73203 25.7468 2.7187C25.8135 2.69203 25.8802 2.6787 25.9602 2.6787C25.9868 2.6787 26.0135 2.6787 26.0402 2.6787C26.1335 2.6787 26.2135 2.69203 26.3068 2.73203C26.3202 2.73203 26.3202 2.73203 26.3335 2.73203C26.4268 2.77203 26.5068 2.82536 26.5735 2.89203C26.5868 2.90536 26.5868 2.90536 26.6002 2.90536L28.2668 4.57203C28.5868 4.89203 28.5868 5.42536 28.2535 5.74536Z" fill="#5C7AEA"/>
<path d="M12 13.8389C13.7526 13.8389 15.1733 12.4181 15.1733 10.6655C15.1733 8.91294 13.7526 7.49219 12 7.49219C10.2474 7.49219 8.82666 8.91294 8.82666 10.6655C8.82666 12.4181 10.2474 13.8389 12 13.8389Z" fill="#5C7AEA"/>
<path d="M27.9598 10.668H27.3332V16.8146L27.1598 16.668C26.1198 15.7746 24.4398 15.7746 23.3998 16.668L17.8532 21.428C16.8132 22.3213 15.1332 22.3213 14.0932 21.428L13.6398 21.0546C12.6932 20.228 11.1865 20.148 10.1198 20.868L5.13317 24.2146C4.83984 23.468 4.6665 22.6013 4.6665 21.588V10.4146C4.6665 6.65464 6.65317 4.66797 10.4132 4.66797H21.3332V4.0413C21.3332 3.50797 21.4265 3.05464 21.6398 2.66797H10.4132C5.55984 2.66797 2.6665 5.5613 2.6665 10.4146V21.588C2.6665 23.0413 2.91984 24.308 3.41317 25.3746C4.55984 27.908 7.01317 29.3346 10.4132 29.3346H21.5865C26.4398 29.3346 29.3332 26.4413 29.3332 21.588V10.3613C28.9465 10.5746 28.4932 10.668 27.9598 10.668Z" fill="#5C7AEA"/>
</svg>
