<svg width="32" height="32" viewBox="0 0 32 32" fill="none" xmlns="http://www.w3.org/2000/svg">
<path d="M27.4935 11.2654C26.0935 5.10536 20.7201 2.33203 16.0001 2.33203C16.0001 2.33203 16.0001 2.33203 15.9868 2.33203C11.2801 2.33203 5.89346 5.09203 4.49346 11.252C2.93346 18.132 7.14679 23.9587 10.9601 27.6254C12.3735 28.9854 14.1868 29.6654 16.0001 29.6654C17.8135 29.6654 19.6268 28.9854 21.0268 27.6254C24.8401 23.9587 29.0535 18.1454 27.4935 11.2654ZM16.0001 17.9454C13.6801 17.9454 11.8001 16.0654 11.8001 13.7454C11.8001 11.4254 13.6801 9.54536 16.0001 9.54536C18.3201 9.54536 20.2001 11.4254 20.2001 13.7454C20.2001 16.0654 18.3201 17.9454 16.0001 17.9454Z" fill="#5C7AEA"/>
</svg>
