<svg width="32" height="32" viewBox="0 0 32 32" fill="none" xmlns="http://www.w3.org/2000/svg">
<path d="M27.8135 11.4124L18.5735 4.02574C17.1469 2.87907 14.8402 2.87907 13.4269 4.0124L4.18686 11.4124C3.14686 12.2391 2.48019 13.9857 2.70686 15.2924L4.48019 25.9057C4.80019 27.7991 6.61352 29.3324 8.53352 29.3324H23.4669C25.3735 29.3324 27.2002 27.7857 27.5202 25.9057L29.2935 15.2924C29.5069 13.9857 28.8402 12.2391 27.8135 11.4124ZM12.5069 23.1724C11.7602 23.1724 11.1735 22.5724 11.1735 21.8391C11.1735 21.1057 11.7735 20.5057 12.5069 20.5057C13.2402 20.5057 13.8402 21.1057 13.8402 21.8391C13.8402 22.5724 13.2402 23.1724 12.5069 23.1724ZM16.5202 22.8257C16.5069 22.8257 16.5069 22.8257 16.4935 22.8257C15.9469 22.8257 15.5069 22.3857 15.4935 21.8524C15.4535 20.0524 14.2669 18.8657 12.4669 18.8257C11.9202 18.8124 11.4802 18.3591 11.4935 17.7991C11.5069 17.2524 11.9469 16.8257 12.4935 16.8257C12.5069 16.8257 12.5069 16.8257 12.5202 16.8257C15.3869 16.8924 17.4402 18.9324 17.4935 21.7991C17.5069 22.3591 17.0802 22.8257 16.5202 22.8257ZM20.5069 22.8257C19.9469 22.8257 19.5069 22.3857 19.4935 21.8391C19.4802 20.9591 19.3335 20.1191 19.0669 19.3324C18.3869 17.3857 16.9335 15.9457 14.9869 15.2524C14.2002 14.9724 13.3602 14.8257 12.4802 14.8257C11.9335 14.8257 11.4802 14.3724 11.4935 13.8124C11.4935 13.2657 11.9469 12.8257 12.4935 12.8257H12.5069C13.6135 12.8391 14.6669 13.0257 15.6535 13.3724C18.1735 14.2657 20.0535 16.1457 20.9469 18.6657C21.2935 19.6524 21.4802 20.7191 21.4935 21.8124C21.5069 22.3724 21.0669 22.8257 20.5069 22.8257Z" fill="#5C7AEA"/>
</svg>
