<svg width="32" height="32" viewBox="0 0 32 32" fill="none" xmlns="http://www.w3.org/2000/svg">
<path d="M24 2.66797H8C5.78667 2.66797 4 4.4413 4 6.62797V21.1746C4 23.3613 5.78667 25.1346 8 25.1346H9.01333C10.08 25.1346 11.0933 25.548 11.84 26.2946L14.12 28.548C15.16 29.5746 16.8533 29.5746 17.8933 28.548L20.1733 26.2946C20.92 25.548 21.9467 25.1346 23 25.1346H24C26.2133 25.1346 28 23.3613 28 21.1746V6.62797C28 4.4413 26.2133 2.66797 24 2.66797ZM16 7.66797C17.72 7.66797 19.1067 9.05464 19.1067 10.7746C19.1067 12.4946 17.72 13.8813 16 13.8813C14.28 13.8813 12.8933 12.4813 12.8933 10.7746C12.8933 9.05464 14.28 7.66797 16 7.66797ZM19.5733 20.0813H12.4267C11.3467 20.0813 10.72 18.8813 11.32 17.988C12.2267 16.6413 13.9867 15.7346 16 15.7346C18.0133 15.7346 19.7733 16.6413 20.68 17.988C21.28 18.8813 20.64 20.0813 19.5733 20.0813Z" fill="#5C7AEA"/>
</svg>
