<svg width="32" height="32" viewBox="0 0 32 32" fill="none" xmlns="http://www.w3.org/2000/svg">
<path d="M17.2002 14.1199L19.4269 12.0799L17.2002 10.2266V14.1199Z" fill="#5C7AEA"/>
<path d="M17.2002 21.7722L19.4269 19.9189L17.2002 17.8789V21.7722Z" fill="#5C7AEA"/>
<path d="M16.0001 2.66797C8.64008 2.66797 2.66675 8.6413 2.66675 16.0013C2.66675 23.3613 8.64008 29.3346 16.0001 29.3346C23.3601 29.3346 29.3334 23.3613 29.3334 16.0013C29.3334 8.6413 23.3601 2.66797 16.0001 2.66797ZM20.9601 18.6013C21.3467 18.9613 21.5601 19.4546 21.5467 19.9613C21.5334 20.468 21.2934 20.9613 20.8934 21.2946L18.1334 23.6013C17.6267 24.028 17.1601 24.148 16.8001 24.148C16.5067 24.148 16.2801 24.068 16.1467 24.0146C15.8534 23.8813 15.1867 23.4413 15.1867 22.228V18.668L12.1201 21.4813C11.7201 21.8546 11.0801 21.828 10.7067 21.4146C10.3334 21.0013 10.3601 20.3746 10.7734 20.0013L15.1467 16.0013L10.7734 11.988C10.3734 11.6146 10.3467 10.988 10.7201 10.5746C11.0934 10.1746 11.7334 10.1346 12.1334 10.508L15.2001 13.3346V9.77464C15.2001 8.57464 15.8667 8.13464 16.1601 7.98797C16.4401 7.85464 17.2134 7.62797 18.1467 8.38797L20.8934 10.6813C21.2934 11.0146 21.5334 11.508 21.5467 12.0146C21.5601 12.5213 21.3467 13.028 20.9601 13.3746L18.1067 16.0013L20.9601 18.6013Z" fill="#5C7AEA"/>
</svg>
