<svg width="24" height="24" viewBox="0 0 24 24" fill="none" xmlns="http://www.w3.org/2000/svg">
<path d="M12 2C17.52 2 22 6.48 22 12C22 17.52 17.52 22 12 22C6.48 22 2 17.52 2 12C2 6.48 6.48 2 12 2ZM8.5 12.75H13.69L11.97 14.47C11.68 14.76 11.68 15.24 11.97 15.53C12.12 15.68 12.31 15.75 12.5 15.75C12.69 15.75 12.88 15.68 13.03 15.53L16.03 12.53C16.32 12.24 16.32 11.76 16.03 11.47L13.03 8.47C12.74 8.18 12.26 8.18 11.97 8.47C11.68 8.76 11.68 9.24 11.97 9.53L13.69 11.25H8.5C8.09 11.25 7.75 11.59 7.75 12C7.75 12.41 8.09 12.75 8.5 12.75Z" fill="#5C7AEA"/>
</svg>
