<svg width="32" height="32" viewBox="0 0 32 32" fill="none" xmlns="http://www.w3.org/2000/svg">
<path d="M22.3333 4.74797V2.66797C22.3333 2.1213 21.88 1.66797 21.3333 1.66797C20.7866 1.66797 20.3333 2.1213 20.3333 2.66797V4.66797H11.6666V2.66797C11.6666 2.1213 11.2133 1.66797 10.6666 1.66797C10.12 1.66797 9.66665 2.1213 9.66665 2.66797V4.74797C6.06665 5.0813 4.31998 7.22797 4.05331 10.4146C4.02665 10.8013 4.34665 11.1213 4.71998 11.1213H27.28C27.6666 11.1213 27.9866 10.788 27.9466 10.4146C27.68 7.22797 25.9333 5.0813 22.3333 4.74797Z" fill="#FF5A5F"/>
<path d="M26.6667 13.1211H5.33333C4.6 13.1211 4 13.7211 4 14.4544V22.6678C4 26.6678 6 29.3344 10.6667 29.3344H21.3333C26 29.3344 28 26.6678 28 22.6678V14.4544C28 13.7211 27.4 13.1211 26.6667 13.1211ZM12.28 24.2811C12.2133 24.3344 12.1467 24.4011 12.08 24.4411C12 24.4944 11.92 24.5344 11.84 24.5611C11.76 24.6011 11.68 24.6278 11.6 24.6411C11.5067 24.6544 11.4267 24.6678 11.3333 24.6678C11.16 24.6678 10.9867 24.6278 10.8267 24.5611C10.6533 24.4944 10.52 24.4011 10.3867 24.2811C10.1467 24.0278 10 23.6811 10 23.3344C10 22.9878 10.1467 22.6411 10.3867 22.3878C10.52 22.2678 10.6533 22.1744 10.8267 22.1078C11.0667 22.0011 11.3333 21.9744 11.6 22.0278C11.68 22.0411 11.76 22.0678 11.84 22.1078C11.92 22.1344 12 22.1744 12.08 22.2278C12.1467 22.2811 12.2133 22.3344 12.28 22.3878C12.52 22.6411 12.6667 22.9878 12.6667 23.3344C12.6667 23.6811 12.52 24.0278 12.28 24.2811ZM12.28 19.6144C12.0267 19.8544 11.68 20.0011 11.3333 20.0011C10.9867 20.0011 10.64 19.8544 10.3867 19.6144C10.1467 19.3611 10 19.0144 10 18.6678C10 18.3211 10.1467 17.9744 10.3867 17.7211C10.76 17.3478 11.3467 17.2278 11.84 17.4411C12.0133 17.5078 12.16 17.6011 12.28 17.7211C12.52 17.9744 12.6667 18.3211 12.6667 18.6678C12.6667 19.0144 12.52 19.3611 12.28 19.6144ZM16.9467 24.2811C16.6933 24.5211 16.3467 24.6678 16 24.6678C15.6533 24.6678 15.3067 24.5211 15.0533 24.2811C14.8133 24.0278 14.6667 23.6811 14.6667 23.3344C14.6667 22.9878 14.8133 22.6411 15.0533 22.3878C15.5467 21.8944 16.4533 21.8944 16.9467 22.3878C17.1867 22.6411 17.3333 22.9878 17.3333 23.3344C17.3333 23.6811 17.1867 24.0278 16.9467 24.2811ZM16.9467 19.6144C16.88 19.6678 16.8133 19.7211 16.7467 19.7744C16.6667 19.8278 16.5867 19.8678 16.5067 19.8944C16.4267 19.9344 16.3467 19.9611 16.2667 19.9744C16.1733 19.9878 16.0933 20.0011 16 20.0011C15.6533 20.0011 15.3067 19.8544 15.0533 19.6144C14.8133 19.3611 14.6667 19.0144 14.6667 18.6678C14.6667 18.3211 14.8133 17.9744 15.0533 17.7211C15.1733 17.6011 15.32 17.5078 15.4933 17.4411C15.9867 17.2278 16.5733 17.3478 16.9467 17.7211C17.1867 17.9744 17.3333 18.3211 17.3333 18.6678C17.3333 19.0144 17.1867 19.3611 16.9467 19.6144ZM21.6133 24.2811C21.36 24.5211 21.0133 24.6678 20.6667 24.6678C20.32 24.6678 19.9733 24.5211 19.72 24.2811C19.48 24.0278 19.3333 23.6811 19.3333 23.3344C19.3333 22.9878 19.48 22.6411 19.72 22.3878C20.2133 21.8944 21.12 21.8944 21.6133 22.3878C21.8533 22.6411 22 22.9878 22 23.3344C22 23.6811 21.8533 24.0278 21.6133 24.2811ZM21.6133 19.6144C21.5467 19.6678 21.48 19.7211 21.4133 19.7744C21.3333 19.8278 21.2533 19.8678 21.1733 19.8944C21.0933 19.9344 21.0133 19.9611 20.9333 19.9744C20.84 19.9878 20.7467 20.0011 20.6667 20.0011C20.32 20.0011 19.9733 19.8544 19.72 19.6144C19.48 19.3611 19.3333 19.0144 19.3333 18.6678C19.3333 18.3211 19.48 17.9744 19.72 17.7211C19.8533 17.6011 19.9867 17.5078 20.16 17.4411C20.4 17.3344 20.6667 17.3078 20.9333 17.3611C21.0133 17.3744 21.0933 17.4011 21.1733 17.4411C21.2533 17.4678 21.3333 17.5078 21.4133 17.5611C21.48 17.6144 21.5467 17.6678 21.6133 17.7211C21.8533 17.9744 22 18.3211 22 18.6678C22 19.0144 21.8533 19.3611 21.6133 19.6144Z" fill="#FF5A5F"/>
</svg>
