<svg width="25" height="24" viewBox="0 0 25 24" fill="none" xmlns="http://www.w3.org/2000/svg">
<path d="M7.87724 4.67985C7.80135 4.75573 7.74375 4.84721 7.69565 4.94749L7.69023 4.94207L0.0905973 22.0616L0.0980506 22.069C-0.042884 22.3421 0.192911 22.8977 0.676018 23.3815C1.15913 23.8646 1.71473 24.1004 1.98779 23.9594L1.99457 23.9662L19.1141 16.3659L19.1086 16.3598C19.2082 16.3124 19.2997 16.2548 19.3763 16.1775C20.4346 15.1192 18.7184 11.6873 15.5439 8.51218C12.3682 5.33709 8.93628 3.62148 7.87724 4.67985Z" fill="#DD2E44"/>
<path d="M8.80822 7.73828L0.281672 21.6325L0.0905973 22.0628L0.0980506 22.0703C-0.042884 22.3433 0.192911 22.8989 0.676018 23.3827C0.833215 23.5399 0.996509 23.6592 1.15642 23.7601L11.5185 11.1261L8.80822 7.73828Z" fill="#EA596E"/>
<path d="M15.5921 8.4595C18.7564 11.6251 20.5133 14.9994 19.5146 15.9968C18.5165 16.9955 15.1422 15.2393 11.9759 12.075C8.81098 8.9094 7.05472 5.53375 8.05278 4.53569C9.05152 3.53763 12.4258 5.29389 15.5921 8.4595Z" fill="#A0041E"/>
<path d="M12.5961 8.82739C12.4613 8.93647 12.2851 8.99339 12.0988 8.97306C11.5106 8.90937 11.016 8.70475 10.6698 8.38154C10.3032 8.03937 10.1223 7.57998 10.1717 7.11991C10.2585 6.31224 11.0689 5.57098 12.4504 5.72005C12.9877 5.77764 13.2276 5.60486 13.2357 5.5222C13.2452 5.44021 13.048 5.22 12.5107 5.16173C11.9226 5.09804 11.428 4.89341 11.081 4.57021C10.7145 4.22804 10.5329 3.76864 10.583 3.30857C10.6711 2.50091 11.4808 1.75965 12.861 1.90939C13.2527 1.9514 13.4593 1.87077 13.5467 1.8186C13.6165 1.77591 13.6443 1.73526 13.647 1.71154C13.6551 1.62956 13.4607 1.40934 12.922 1.35107C12.55 1.31042 12.2803 0.977055 12.3217 0.604391C12.3617 0.232405 12.6943 -0.0365906 13.0677 0.00406362C14.4479 0.152452 15.0821 1.04888 14.9947 1.85722C14.9066 2.66624 14.0969 3.40614 12.7153 3.25776C12.3237 3.21507 12.1191 3.29638 12.031 3.34855C11.9612 3.39056 11.9328 3.43189 11.93 3.45493C11.9212 3.53759 12.1171 3.75713 12.6557 3.8154C14.0359 3.96446 14.6701 4.86021 14.5827 5.66855C14.4953 6.47622 13.6856 7.21748 12.3047 7.06774C11.9131 7.02573 11.7071 7.10703 11.619 7.15853C11.5486 7.20189 11.5215 7.24255 11.5188 7.26559C11.5099 7.34757 11.7058 7.56778 12.2438 7.62605C12.6151 7.66671 12.8854 8.00075 12.8441 8.37274C12.8251 8.55839 12.7309 8.71897 12.5961 8.82739Z" fill="#AA8DD8"/>
<path d="M20.7749 15.0928C22.1117 14.7154 23.0339 15.3117 23.2534 16.0943C23.473 16.8762 22.9973 17.8661 21.6612 18.2422C21.1394 18.3885 20.9829 18.6379 21.0039 18.7171C21.0269 18.7971 21.2919 18.9285 21.8123 18.7815C23.1484 18.4055 24.0706 19.0017 24.2901 19.7836C24.511 20.5662 24.034 21.5548 22.6972 21.9315C22.1761 22.0779 22.0189 22.3279 22.0419 22.4072C22.0643 22.4865 22.3286 22.6179 22.8496 22.4716C23.2087 22.3706 23.5841 22.58 23.6851 22.9398C23.7853 23.3002 23.576 23.6742 23.2155 23.7759C21.88 24.1519 20.9572 23.557 20.7363 22.7738C20.5167 21.9918 20.9931 21.0033 22.3306 20.6265C22.8523 20.4795 23.0088 20.2308 22.9858 20.1509C22.9641 20.0716 22.6999 19.9395 22.1795 20.0858C20.842 20.4626 19.9205 19.8677 19.7003 19.0837C19.4801 18.3018 19.9564 17.3132 21.2932 16.9358C21.8136 16.7901 21.9701 16.5394 21.9484 16.4608C21.9254 16.3809 21.6618 16.2494 21.1408 16.3958C20.7803 16.4974 20.407 16.2874 20.3053 15.9276C20.2044 15.5685 20.4144 15.1944 20.7749 15.0928Z" fill="#77B255"/>
<path d="M15.5849 13.2669C15.3857 13.2669 15.1892 13.1795 15.055 13.0128C14.8213 12.7201 14.8694 12.2939 15.1607 12.0602C15.3084 11.9416 18.8318 9.17438 23.8113 9.88651C24.1819 9.93936 24.4394 10.2822 24.3865 10.6528C24.3337 11.0228 23.9935 11.283 23.6195 11.2274C19.22 10.6027 16.0395 13.0934 16.0084 13.1185C15.8823 13.2188 15.7333 13.2669 15.5849 13.2669Z" fill="#AA8DD8"/>
<path d="M3.89877 10.4472C3.8344 10.4472 3.76867 10.4377 3.70363 10.4187C3.34519 10.311 3.14192 9.93356 3.24965 9.57513C4.01734 7.01866 4.71321 2.93901 3.85811 1.87522C3.76257 1.75461 3.61825 1.63604 3.2876 1.66111C2.65204 1.70989 2.71234 3.0508 2.71302 3.06436C2.74148 3.4377 2.46096 3.76293 2.0883 3.79071C1.70954 3.81375 1.38972 3.53865 1.36194 3.16531C1.29215 2.23094 1.58283 0.431317 3.18596 0.310032C3.90148 0.255826 4.49571 0.504494 4.91512 1.02622C6.52164 3.02573 4.89073 8.82235 4.54788 9.96473C4.45979 10.2581 4.19012 10.4472 3.89877 10.4472Z" fill="#77B255"/>
<path d="M17.2781 7.06006C17.8394 7.06006 18.2944 6.60502 18.2944 6.0437C18.2944 5.48238 17.8394 5.02734 17.2781 5.02734C16.7168 5.02734 16.2617 5.48238 16.2617 6.0437C16.2617 6.60502 16.7168 7.06006 17.2781 7.06006Z" fill="#5C913B"/>
<path d="M1.35514 13.1575C2.10356 13.1575 2.71028 12.5508 2.71028 11.8024C2.71028 11.054 2.10356 10.4473 1.35514 10.4473C0.606717 10.4473 0 11.054 0 11.8024C0 12.5508 0.606717 13.1575 1.35514 13.1575Z" fill="#9266CC"/>
<path d="M22.021 13.8354C22.5823 13.8354 23.0373 13.3804 23.0373 12.8191C23.0373 12.2578 22.5823 11.8027 22.021 11.8027C21.4597 11.8027 21.0046 12.2578 21.0046 12.8191C21.0046 13.3804 21.4597 13.8354 22.021 13.8354Z" fill="#5C913B"/>
<path d="M15.9228 21.9663C16.4842 21.9663 16.9392 21.5113 16.9392 20.9499C16.9392 20.3886 16.4842 19.9336 15.9228 19.9336C15.3615 19.9336 14.9065 20.3886 14.9065 20.9499C14.9065 21.5113 15.3615 21.9663 15.9228 21.9663Z" fill="#5C913B"/>
<path d="M18.9721 3.67317C19.7205 3.67317 20.3272 3.06646 20.3272 2.31803C20.3272 1.56961 19.7205 0.962891 18.9721 0.962891C18.2237 0.962891 17.6169 1.56961 17.6169 2.31803C17.6169 3.06646 18.2237 3.67317 18.9721 3.67317Z" fill="#FFCC4D"/>
<path d="M22.021 6.38232C22.5823 6.38232 23.0373 5.92728 23.0373 5.36597C23.0373 4.80465 22.5823 4.34961 22.021 4.34961C21.4597 4.34961 21.0046 4.80465 21.0046 5.36597C21.0046 5.92728 21.4597 6.38232 22.021 6.38232Z" fill="#FFCC4D"/>
<path d="M19.9883 9.09326C20.5496 9.09326 21.0046 8.63822 21.0046 8.0769C21.0046 7.51558 20.5496 7.06055 19.9883 7.06055C19.427 7.06055 18.9719 7.51558 18.9719 8.0769C18.9719 8.63822 19.427 9.09326 19.9883 9.09326Z" fill="#FFCC4D"/>
<path d="M5.08179 16.5464C5.6431 16.5464 6.09814 16.0913 6.09814 15.53C6.09814 14.9687 5.6431 14.5137 5.08179 14.5137C4.52047 14.5137 4.06543 14.9687 4.06543 15.53C4.06543 16.0913 4.52047 16.5464 5.08179 16.5464Z" fill="#FFCC4D"/>
</svg>
