<svg width="32" height="32" viewBox="0 0 32 32" fill="none" xmlns="http://www.w3.org/2000/svg">
<path d="M21.3333 2.66797H10.6667C6 2.66797 4 5.33464 4 9.33464V22.668C4 26.668 6 29.3346 10.6667 29.3346H21.3333C26 29.3346 28 26.668 28 22.668V9.33464C28 5.33464 26 2.66797 21.3333 2.66797ZM10.6667 16.3346H16C16.5467 16.3346 17 16.788 17 17.3346C17 17.8813 16.5467 18.3346 16 18.3346H10.6667C10.12 18.3346 9.66667 17.8813 9.66667 17.3346C9.66667 16.788 10.12 16.3346 10.6667 16.3346ZM21.3333 23.668H10.6667C10.12 23.668 9.66667 23.2146 9.66667 22.668C9.66667 22.1213 10.12 21.668 10.6667 21.668H21.3333C21.88 21.668 22.3333 22.1213 22.3333 22.668C22.3333 23.2146 21.88 23.668 21.3333 23.668ZM24.6667 12.3346H22C19.9733 12.3346 18.3333 10.6946 18.3333 8.66797V6.0013C18.3333 5.45464 18.7867 5.0013 19.3333 5.0013C19.88 5.0013 20.3333 5.45464 20.3333 6.0013V8.66797C20.3333 9.58797 21.08 10.3346 22 10.3346H24.6667C25.2133 10.3346 25.6667 10.788 25.6667 11.3346C25.6667 11.8813 25.2133 12.3346 24.6667 12.3346Z" fill="#5C7AEA"/>
</svg>
