<svg width="18" height="18" viewBox="0 0 18 18" fill="none" xmlns="http://www.w3.org/2000/svg">
<path d="M8.25 1.5H6.75C3 1.5 1.5 3 1.5 6.75V11.25C1.5 15 3 16.5 6.75 16.5H11.25C15 16.5 16.5 15 16.5 11.25V9.75" stroke="#5C7AEA" stroke-width="1.5" stroke-linecap="round" stroke-linejoin="round"/>
<path d="M12.03 2.26501L6.12 8.17501C5.895 8.40001 5.67 8.84251 5.625 9.16501L5.3025 11.4225C5.1825 12.24 5.76 12.81 6.5775 12.6975L8.835 12.375C9.15 12.33 9.5925 12.105 9.825 11.88L15.735 5.97001C16.755 4.95001 17.235 3.76501 15.735 2.26501C14.235 0.765006 13.05 1.24501 12.03 2.26501Z" stroke="#5C7AEA" stroke-width="1.5" stroke-miterlimit="10" stroke-linecap="round" stroke-linejoin="round"/>
<path d="M11.1825 3.11249C11.685 4.90499 13.0875 6.30749 14.8875 6.81749" stroke="#5C7AEA" stroke-width="1.5" stroke-miterlimit="10" stroke-linecap="round" stroke-linejoin="round"/>
</svg>
