<svg xmlns="http://www.w3.org/2000/svg" width="25" height="15.909" viewBox="0 0 25 15.909">
  <path id="Icon_material-group" data-name="Icon material-group" d="M18.545,14.318a3.409,3.409,0,1,0-3.409-3.409A3.395,3.395,0,0,0,18.545,14.318Zm-9.091,0a3.409,3.409,0,1,0-3.409-3.409A3.395,3.395,0,0,0,9.455,14.318Zm0,2.273c-2.648,0-7.955,1.33-7.955,3.977v2.841H17.409V20.568C17.409,17.92,12.1,16.591,9.455,16.591Zm9.091,0c-.33,0-.7.023-1.1.057a4.8,4.8,0,0,1,2.239,3.92v2.841H26.5V20.568C26.5,17.92,21.193,16.591,18.545,16.591Z" transform="translate(-1.5 -7.5)" fill="#2b8649"/>
</svg>
