<svg xmlns="http://www.w3.org/2000/svg" width="20.993" height="20.995" viewBox="0 0 20.993 20.995">
  <path id="home" d="M20.429,9.131h0L11.863.566a1.932,1.932,0,0,0-2.734,0L.57,9.125l-.009.009a1.932,1.932,0,0,0,1.286,3.293l.06,0h.341v6.3a2.265,2.265,0,0,0,2.262,2.262H7.861a.615.615,0,0,0,.615-.615V15.438a1.033,1.033,0,0,1,1.032-1.032h1.976a1.033,1.033,0,0,1,1.032,1.032V20.38a.615.615,0,0,0,.615.615h3.351a2.265,2.265,0,0,0,2.262-2.262v-6.3h.317a1.933,1.933,0,0,0,1.368-3.3Zm0,0" transform="translate(0 0.001)" fill="#dcdcdc"/>
</svg>
