<svg width="16" height="16" viewBox="0 0 16 16" fill="none" xmlns="http://www.w3.org/2000/svg">
<path d="M10.7935 1.33203H5.20683C2.78016 1.33203 1.3335 2.7787 1.3335 5.20536V10.7854C1.3335 13.2187 2.78016 14.6654 5.20683 14.6654H10.7868C13.2135 14.6654 14.6602 13.2187 14.6602 10.792V5.20536C14.6668 2.7787 13.2202 1.33203 10.7935 1.33203ZM11.3335 11.4987H4.66683C4.3935 11.4987 4.16683 11.272 4.16683 10.9987C4.16683 10.7254 4.3935 10.4987 4.66683 10.4987H11.3335C11.6068 10.4987 11.8335 10.7254 11.8335 10.9987C11.8335 11.272 11.6068 11.4987 11.3335 11.4987ZM11.3335 8.4987H4.66683C4.3935 8.4987 4.16683 8.27203 4.16683 7.9987C4.16683 7.72536 4.3935 7.4987 4.66683 7.4987H11.3335C11.6068 7.4987 11.8335 7.72536 11.8335 7.9987C11.8335 8.27203 11.6068 8.4987 11.3335 8.4987ZM11.3335 5.4987H4.66683C4.3935 5.4987 4.16683 5.27203 4.16683 4.9987C4.16683 4.72536 4.3935 4.4987 4.66683 4.4987H11.3335C11.6068 4.4987 11.8335 4.72536 11.8335 4.9987C11.8335 5.27203 11.6068 5.4987 11.3335 5.4987Z" fill="#5C7AEA"/>
</svg>
