<svg width="32" height="32" viewBox="0 0 32 32" fill="none" xmlns="http://www.w3.org/2000/svg">
<path d="M21.04 27.9746C19.6267 29.3346 17.8134 30.0146 16 30.0146C14.1867 30.0146 12.3734 29.3212 10.96 27.9613C10.48 27.5079 10 27.0013 9.52002 26.4813L26.72 9.28125C27.0534 10.0013 27.3067 10.7612 27.4934 11.6012C29.0534 18.4812 24.84 24.2946 21.04 27.9746Z" fill="white"/>
<path d="M29.0267 2.97187C28.6267 2.57187 27.9733 2.57187 27.5733 2.97187L2.97334 27.5852C2.57334 27.9852 2.57334 28.6385 2.97334 29.0385C3.17334 29.2252 3.42667 29.3319 3.69334 29.3319C3.96001 29.3319 4.21334 29.2252 4.41334 29.0252L29.0267 4.41187C29.44 4.01187 29.44 3.37187 29.0267 2.97187Z" fill="white"/>
<path d="M11.8 13.748C11.8 11.428 13.68 9.54797 16 9.54797C17.7467 9.54797 19.24 10.6146 19.88 12.1346L25.1867 6.82797C22.8267 3.97464 19.2533 2.66797 16 2.66797C13.64 2.66797 11.12 3.3613 9.01332 4.81464C6.90666 6.2813 5.19999 8.50797 4.50666 11.588C3.38666 16.4813 5.19999 20.8546 7.71999 24.2813L14.3867 17.6146C12.8667 16.988 11.8 15.4813 11.8 13.748Z" fill="white"/>
</svg>
