<svg width="16" height="16" viewBox="0 0 16 16" fill="none" xmlns="http://www.w3.org/2000/svg">
<path d="M13.7467 5.63463C13.0467 2.55464 10.3601 1.16797 8.00006 1.16797C8.00006 1.16797 8.00006 1.16797 7.9934 1.16797C5.64006 1.16797 2.94673 2.54797 2.24673 5.62797C1.46673 9.06797 3.5734 11.9813 5.48006 13.8146C6.18673 14.4946 7.0934 14.8346 8.00006 14.8346C8.90673 14.8346 9.8134 14.4946 10.5134 13.8146C12.4201 11.9813 14.5267 9.07463 13.7467 5.63463ZM8.00006 8.97464C6.84006 8.97464 5.90006 8.03464 5.90006 6.87464C5.90006 5.71464 6.84006 4.77464 8.00006 4.77464C9.16006 4.77464 10.1001 5.71464 10.1001 6.87464C10.1001 8.03464 9.16006 8.97464 8.00006 8.97464Z" fill="white"/>
</svg>
