<svg width="32" height="32" viewBox="0 0 32 32" fill="none" xmlns="http://www.w3.org/2000/svg">
<path d="M2.6665 13.0013C2.11984 13.0013 1.6665 12.548 1.6665 12.0013V8.66797C1.6665 4.8013 4.81317 1.66797 8.6665 1.66797H11.9998C12.5465 1.66797 12.9998 2.1213 12.9998 2.66797C12.9998 3.21464 12.5465 3.66797 11.9998 3.66797H8.6665C5.9065 3.66797 3.6665 5.90797 3.6665 8.66797V12.0013C3.6665 12.548 3.21317 13.0013 2.6665 13.0013Z" fill="white"/>
<path d="M29.3333 13.0013C28.7867 13.0013 28.3333 12.548 28.3333 12.0013V8.66797C28.3333 5.90797 26.0933 3.66797 23.3333 3.66797H20C19.4533 3.66797 19 3.21464 19 2.66797C19 2.1213 19.4533 1.66797 20 1.66797H23.3333C27.1867 1.66797 30.3333 4.8013 30.3333 8.66797V12.0013C30.3333 12.548 29.88 13.0013 29.3333 13.0013Z" fill="white"/>
<path d="M23.3335 30.332H21.3335C20.7868 30.332 20.3335 29.8787 20.3335 29.332C20.3335 28.7854 20.7868 28.332 21.3335 28.332H23.3335C26.0935 28.332 28.3335 26.092 28.3335 23.332V21.332C28.3335 20.7854 28.7868 20.332 29.3335 20.332C29.8802 20.332 30.3335 20.7854 30.3335 21.332V23.332C30.3335 27.1987 27.1868 30.332 23.3335 30.332Z" fill="white"/>
<path d="M11.9998 30.3333H8.6665C4.81317 30.3333 1.6665 27.2 1.6665 23.3333V20C1.6665 19.4533 2.11984 19 2.6665 19C3.21317 19 3.6665 19.4533 3.6665 20V23.3333C3.6665 26.0933 5.9065 28.3333 8.6665 28.3333H11.9998C12.5465 28.3333 12.9998 28.7867 12.9998 29.3333C12.9998 29.88 12.5465 30.3333 11.9998 30.3333Z" fill="white"/>
<path d="M12 7H9.33333C7.81333 7 7 7.8 7 9.33333V12C7 13.5333 7.81333 14.3333 9.33333 14.3333H12C13.52 14.3333 14.3333 13.5333 14.3333 12V9.33333C14.3333 7.8 13.52 7 12 7Z" fill="white"/>
<path d="M22.6665 7H19.9998C18.4798 7 17.6665 7.8 17.6665 9.33333V12C17.6665 13.5333 18.4798 14.3333 19.9998 14.3333H22.6665C24.1865 14.3333 24.9998 13.5333 24.9998 12V9.33333C24.9998 7.8 24.1865 7 22.6665 7Z" fill="white"/>
<path d="M12 17.668H9.33333C7.81333 17.668 7 18.468 7 20.0013V22.668C7 24.2013 7.81333 25.0013 9.33333 25.0013H12C13.52 25.0013 14.3333 24.2013 14.3333 22.668V20.0013C14.3333 18.468 13.52 17.668 12 17.668Z" fill="white"/>
<path d="M22.6665 17.668H19.9998C18.4798 17.668 17.6665 18.468 17.6665 20.0013V22.668C17.6665 24.2013 18.4798 25.0013 19.9998 25.0013H22.6665C24.1865 25.0013 24.9998 24.2013 24.9998 22.668V20.0013C24.9998 18.468 24.1865 17.668 22.6665 17.668Z" fill="white"/>
</svg>
