<svg width="16" height="16" viewBox="0 0 16 16" fill="none" xmlns="http://www.w3.org/2000/svg">
<path d="M6.71334 1.87998L2.09335 5.58001C1.57335 5.99334 1.24 6.8667 1.35334 7.52003L2.23999 12.8267C2.39999 13.7733 3.30667 14.5401 4.26667 14.5401H11.7333C12.6867 14.5401 13.6 13.7667 13.76 12.8267L14.6467 7.52003C14.7533 6.8667 14.42 5.99334 13.9067 5.58001L9.28667 1.88665C8.57333 1.31332 7.42001 1.31331 6.71334 1.87998Z" stroke="#FE9365" stroke-width="1.2" stroke-linecap="round" stroke-linejoin="round"/>
<path d="M6.58667 9.58669C7.43334 8.78002 8.56666 8.78002 9.41333 9.58669" stroke="#FE9365" stroke-width="1.2" stroke-linecap="round" stroke-linejoin="round"/>
<path d="M10.8267 8.17338C10.4667 7.82005 10.0667 7.54672 9.65333 7.34672C8.59333 6.84005 7.40666 6.84005 6.34 7.34672C5.92666 7.54672 5.53332 7.82005 5.16666 8.17338" stroke="#FE9365" stroke-width="1.2" stroke-linecap="round" stroke-linejoin="round"/>
<path d="M7.99699 11.3333H8.00299" stroke="#FE9365" stroke-width="1.5" stroke-linecap="round" stroke-linejoin="round"/>
</svg>
