<svg width="16" height="16" viewBox="0 0 16 16" fill="none" xmlns="http://www.w3.org/2000/svg">
<path d="M5.99992 1.33203C4.25325 1.33203 2.83325 2.75203 2.83325 4.4987C2.83325 6.21203 4.17325 7.5987 5.91992 7.6587C5.97325 7.65203 6.02659 7.65203 6.06659 7.6587C6.07992 7.6587 6.08659 7.6587 6.09992 7.6587C6.10659 7.6587 6.10659 7.6587 6.11325 7.6587C7.81992 7.5987 9.15992 6.21203 9.16659 4.4987C9.16659 2.75203 7.74659 1.33203 5.99992 1.33203Z" fill="white"/>
<path d="M9.38664 9.43391C7.52664 8.19391 4.49331 8.19391 2.61997 9.43391C1.77331 10.0006 1.30664 10.7672 1.30664 11.5872C1.30664 12.4072 1.77331 13.1672 2.61331 13.7272C3.54664 14.3539 4.77331 14.6672 5.99997 14.6672C7.22664 14.6672 8.45331 14.3539 9.38664 13.7272C10.2266 13.1606 10.6933 12.4006 10.6933 11.5739C10.6866 10.7539 10.2266 9.99391 9.38664 9.43391Z" fill="white"/>
<path d="M13.3267 4.8921C13.4334 6.18543 12.5134 7.31876 11.2401 7.4721C11.2334 7.4721 11.2334 7.4721 11.2267 7.4721H11.2067C11.1667 7.4721 11.1267 7.4721 11.0934 7.48543C10.4467 7.51876 9.85341 7.3121 9.40674 6.9321C10.0934 6.31876 10.4867 5.39876 10.4067 4.39876C10.3601 3.85876 10.1734 3.36543 9.89341 2.94543C10.1467 2.81876 10.4401 2.73876 10.7401 2.7121C12.0467 2.59876 13.2134 3.5721 13.3267 4.8921Z" fill="white"/>
<path d="M14.66 11.059C14.6067 11.7056 14.1933 12.2656 13.5 12.6456C12.8333 13.0123 11.9933 13.1856 11.16 13.1656C11.64 12.7323 11.92 12.1923 11.9733 11.619C12.04 10.7923 11.6467 9.99896 10.86 9.36563C10.4133 9.0123 9.89333 8.7323 9.32666 8.52563C10.8 8.09896 12.6533 8.38563 13.7933 9.30563C14.4067 9.79896 14.72 10.419 14.66 11.059Z" fill="white"/>
</svg>
