<svg width="32" height="32" viewBox="0 0 32 32" fill="none" xmlns="http://www.w3.org/2000/svg">
<path d="M15.9998 30.3346C8.09317 30.3346 1.6665 23.908 1.6665 16.0013C1.6665 8.09464 8.09317 1.66797 15.9998 1.66797C23.9065 1.66797 30.3332 8.09464 30.3332 16.0013C30.3332 23.908 23.9065 30.3346 15.9998 30.3346ZM15.9998 3.66797C9.19984 3.66797 3.6665 9.2013 3.6665 16.0013C3.6665 22.8013 9.19984 28.3346 15.9998 28.3346C22.7998 28.3346 28.3332 22.8013 28.3332 16.0013C28.3332 9.2013 22.7998 3.66797 15.9998 3.66797Z" fill="white"/>
<path d="M12.2266 20.7738C11.9733 20.7738 11.72 20.6805 11.52 20.4805C11.1333 20.0938 11.1333 19.4538 11.52 19.0671L19.0666 11.5205C19.4533 11.1338 20.0933 11.1338 20.48 11.5205C20.8666 11.9071 20.8666 12.5471 20.48 12.9338L12.9333 20.4805C12.7466 20.6805 12.48 20.7738 12.2266 20.7738Z" fill="white"/>
<path d="M19.7733 20.7738C19.52 20.7738 19.2666 20.6805 19.0666 20.4805L11.52 12.9338C11.1333 12.5471 11.1333 11.9071 11.52 11.5205C11.9066 11.1338 12.5466 11.1338 12.9333 11.5205L20.48 19.0671C20.8666 19.4538 20.8666 20.0938 20.48 20.4805C20.28 20.6805 20.0266 20.7738 19.7733 20.7738Z" fill="white"/>
</svg>
