<svg width="24" height="24" viewBox="0 0 24 24" fill="none" xmlns="http://www.w3.org/2000/svg">
<path d="M9.17011 15.58C8.98011 15.58 8.79011 15.51 8.64011 15.36C8.35011 15.07 8.35011 14.59 8.64011 14.3L14.3001 8.63999C14.5901 8.34999 15.0701 8.34999 15.3601 8.63999C15.6501 8.92999 15.6501 9.40998 15.3601 9.69998L9.70011 15.36C9.56011 15.51 9.36011 15.58 9.17011 15.58Z" fill="#292D32"/>
<path d="M14.4075 15.1575C14.2175 15.1575 14.0275 15.0875 13.8775 14.9375L8.2175 9.2775C7.9275 8.9875 7.9275 8.5075 8.2175 8.2175C8.5075 7.9275 8.9875 7.9275 9.2775 8.2175L14.9375 13.8775C15.2275 14.1675 15.2275 14.6475 14.9375 14.9375C14.7875 15.0875 14.5975 15.1575 14.4075 15.1575Z" fill="#292D32"/>
<path d="M15 22.75H9C3.57 22.75 1.25 20.43 1.25 15V9C1.25 3.57 3.57 1.25 9 1.25H15C20.43 1.25 22.75 3.57 22.75 9V15C22.75 20.43 20.43 22.75 15 22.75ZM9 2.75C4.39 2.75 2.75 4.39 2.75 9V15C2.75 19.61 4.39 21.25 9 21.25H15C19.61 21.25 21.25 19.61 21.25 15V9C21.25 4.39 19.61 2.75 15 2.75H9Z" fill="#292D32"/>
</svg>
