<svg width="53" height="46" viewBox="0 0 53 46" fill="none" xmlns="http://www.w3.org/2000/svg">
<rect width="53" height="46" rx="23" fill="#5C7AEA"/>
<path d="M17.58 30.0112L17.56 30.0312C17.29 29.4413 17.12 28.7713 17.05 28.0312C17.12 28.7613 17.31 29.4212 17.58 30.0112Z" fill="white"/>
<path d="M24.0001 21.3811C25.3146 21.3811 26.3801 20.3155 26.3801 19.0011C26.3801 17.6867 25.3146 16.6211 24.0001 16.6211C22.6857 16.6211 21.6201 17.6867 21.6201 19.0011C21.6201 20.3155 22.6857 21.3811 24.0001 21.3811Z" fill="white"/>
<path d="M31.19 13H22.81C19.17 13 17 15.17 17 18.81V27.19C17 28.28 17.19 29.23 17.56 30.03C18.42 31.93 20.26 33 22.81 33H31.19C34.83 33 37 30.83 37 27.19V24.9V18.81C37 15.17 34.83 13 31.19 13ZM35.37 23.5C34.59 22.83 33.33 22.83 32.55 23.5L28.39 27.07C27.61 27.74 26.35 27.74 25.57 27.07L25.23 26.79C24.52 26.17 23.39 26.11 22.59 26.65L18.85 29.16C18.63 28.6 18.5 27.95 18.5 27.19V18.81C18.5 15.99 19.99 14.5 22.81 14.5H31.19C34.01 14.5 35.5 15.99 35.5 18.81V23.61L35.37 23.5Z" fill="white"/>
</svg>
