<svg width="40" height="40" viewBox="0 0 40 40" fill="none" xmlns="http://www.w3.org/2000/svg">
<circle cx="20" cy="20" r="19.5" fill="white" stroke="#EEEEEE"/>
<path d="M20 10C14.49 10 10 14.49 10 20C10 25.51 14.49 30 20 30C25.51 30 30 25.51 30 20C30 14.49 25.51 10 20 10ZM19.25 16C19.25 15.59 19.59 15.25 20 15.25C20.41 15.25 20.75 15.59 20.75 16V21C20.75 21.41 20.41 21.75 20 21.75C19.59 21.75 19.25 21.41 19.25 21V16ZM20.92 24.38C20.87 24.51 20.8 24.61 20.71 24.71C20.61 24.8 20.5 24.87 20.38 24.92C20.26 24.97 20.13 25 20 25C19.87 25 19.74 24.97 19.62 24.92C19.5 24.87 19.39 24.8 19.29 24.71C19.2 24.61 19.13 24.51 19.08 24.38C19.03 24.26 19 24.13 19 24C19 23.87 19.03 23.74 19.08 23.62C19.13 23.5 19.2 23.39 19.29 23.29C19.39 23.2 19.5 23.13 19.62 23.08C19.86 22.98 20.14 22.98 20.38 23.08C20.5 23.13 20.61 23.2 20.71 23.29C20.8 23.39 20.87 23.5 20.92 23.62C20.97 23.74 21 23.87 21 24C21 24.13 20.97 24.26 20.92 24.38Z" fill="#5C7AEA"/>
</svg>
