<svg width="53" height="46" viewBox="0 0 53 46" fill="none" xmlns="http://www.w3.org/2000/svg">
<rect width="53" height="46" rx="23" fill="#5C7AEA"/>
<path d="M31.1401 13.9591L22.1101 16.9591C16.0401 18.9891 16.0401 22.2991 22.1101 24.3191L24.7901 25.2091L25.6801 27.8891C27.7001 33.9591 31.0201 33.9591 33.0401 27.8891L36.0501 18.8691C37.3901 14.8191 35.1901 12.6091 31.1401 13.9591ZM31.4601 19.3391L27.6601 23.1591C27.5101 23.3091 27.3201 23.3791 27.1301 23.3791C26.9401 23.3791 26.7501 23.3091 26.6001 23.1591C26.3101 22.8691 26.3101 22.3891 26.6001 22.0991L30.4001 18.2791C30.6901 17.9891 31.1701 17.9891 31.4601 18.2791C31.7501 18.5691 31.7501 19.0491 31.4601 19.3391Z" fill="white"/>
</svg>
