<svg xmlns="http://www.w3.org/2000/svg" viewBox="0 0 30 30" width="30" height="30" preserveAspectRatio="xMidYMid meet" style="width: 100%; height: 100%; transform: translate3d(0px, 0px, 0px);"><defs><clipPath id="__lottie_element_89"><rect width="30" height="30" x="0" y="0"></rect></clipPath></defs><g clip-path="url(#__lottie_element_89)"><g transform="matrix(1,0,0,1,21.75,14.012582778930664)" opacity="1" style="display: block;"><g opacity="1" transform="matrix(1,0,0,1,3.25,3.25)"><path fill="rgb(0,0,0)" fill-opacity="1" d=" M0,3 C1.656999945640564,3 3,1.656999945640564 3,0 C3,-1.656999945640564 1.656999945640564,-3 0,-3 C-1.656999945640564,-3 -3,-1.656999945640564 -3,0 C-3,1.656999945640564 -1.656999945640564,3 0,3z"></path></g></g><g transform="matrix(1,0,0,1,11.75,11.75)" opacity="1" style="display: block;"><g opacity="1" transform="matrix(1,0,0,1,3.25,3.25)"><path fill="rgb(0,0,0)" fill-opacity="1" d=" M0,3 C1.656999945640564,3 3,1.656999945640564 3,0 C3,-1.656999945640564 1.656999945640564,-3 0,-3 C-1.656999945640564,-3 -3,-1.656999945640564 -3,0 C-3,1.656999945640564 -1.656999945640564,3 0,3z"></path></g></g><g transform="matrix(1,0,0,1,1.75,11.75)" opacity="1" style="display: block;"><g opacity="1" transform="matrix(1,0,0,1,3.25,3.25)"><path fill="rgb(0,0,0)" fill-opacity="1" d=" M0,3 C1.656999945640564,3 3,1.656999945640564 3,0 C3,-1.656999945640564 1.656999945640564,-3 0,-3 C-1.656999945640564,-3 -3,-1.656999945640564 -3,0 C-3,1.656999945640564 -1.656999945640564,3 0,3z"></path></g></g></g></svg>